<svg width="20" height="25" viewBox="0 0 20 25" fill="none" xmlns="http://www.w3.org/2000/svg">
<path fill-rule="evenodd" clip-rule="evenodd" d="M10 4.44444C13.0682 4.44444 15.5556 6.93175 15.5556 10C15.5556 13.0682 13.0682 15.5556 10 15.5556C6.93175 15.5556 4.44444 13.0682 4.44444 10C4.44444 6.93175 6.93175 4.44444 10 4.44444ZM6.66667 10C6.66667 8.15905 8.15905 6.66667 10 6.66667C11.841 6.66667 13.3333 8.15905 13.3333 10C13.3333 11.8409 11.841 13.3333 10 13.3333C8.15905 13.3333 6.66667 11.8409 6.66667 10Z" fill="#2A3589"/>
<path fill-rule="evenodd" clip-rule="evenodd" d="M10 24.8084L10.7308 24.1703C16.8763 18.8041 20 14.1186 20 10C20 4.1674 15.4477 0 10 0C4.55228 0 0 4.1674 0 10C0 14.1186 3.12368 18.8041 9.26919 24.1703L10 24.8084ZM10 21.8482C4.78512 17.1484 2.22222 13.1658 2.22222 10C2.22222 5.44067 5.73791 2.22222 10 2.22222C14.2621 2.22222 17.7778 5.44067 17.7778 10C17.7778 13.1658 15.2149 17.1484 10 21.8482Z" fill="#2A3589"/>
</svg>
