<svg width="232" height="238" viewBox="0 0 232 238" fill="#C4C4C4" fill-opacity="0.1" xmlns="http://www.w3.org/2000/svg">
<path fill-rule="evenodd" clip-rule="evenodd" d="M231.715 121.349C231.715 54.3296 179.908 1.22119e-06 116 7.86702e-07C52.0928 3.52219e-07 0.285644 54.3296 0.285644 121.349C0.285644 121.349 0.285644 121.349 0.285644 121.349L26.0001 121.349C26.0001 69.2228 66.2946 26.9666 116 26.9666C165.706 26.9666 206 69.2228 206 121.349L231.715 121.349Z"/>
<path fill-rule="evenodd" clip-rule="evenodd" d="M0.350444 121.348C2.40755 185.75 53.3985 237.303 116 237.303C178.602 237.303 229.593 185.75 231.65 121.348L206.001 121.348C206.001 121.348 206.001 121.348 206.001 121.349C206.001 173.474 165.706 215.731 116 215.731C66.2947 215.731 26.0003 173.474 26.0003 121.348C26.0003 121.348 26.0003 121.348 26.0003 121.348L0.350444 121.348Z"/>
</svg>
