<svg width="200" height="183" viewBox="0 0 200 183" fill="none" xmlns="http://www.w3.org/2000/svg">
<path d="M10 -5H5V0V104.178V106.716L7.04838 108.214L97.0484 174.036L100 176.195L102.952 174.036L192.952 108.214L195 106.716V104.178V0V-5H190H10Z" fill="#2A3589" stroke="white" stroke-width="10"/>
<path d="M40.2614 84.7005L41.0298 85.4635H162.378L163.146 84.7005H40.2614Z" fill="white"/>
<path d="M41.0298 55.7533L40.2614 56.5155H163.146L162.378 55.7533H41.0298Z" fill="white"/>
<path d="M77.3485 49.1784C77.3556 49.335 77.4719 49.4419 77.635 49.4529C77.7299 49.46 77.8257 49.4647 77.9214 49.4647C78.2799 49.4663 78.6384 49.4687 78.9962 49.4647C79.5683 49.4577 79.5945 49.4349 79.596 48.8127C79.5992 46.7369 79.5976 44.6635 79.596 42.5886C79.596 42.4635 79.5826 42.3377 79.5691 42.2118C79.5565 42.0828 79.4575 41.9798 79.3293 41.9782C78.7564 41.9735 78.1842 41.9751 77.6112 41.9751C77.5875 41.9751 77.5645 41.9892 77.5416 41.9924C77.4609 42.0073 77.3675 42.1072 77.3619 42.2008C77.3485 42.4266 77.3319 42.6531 77.3311 42.8804C77.3279 43.8164 77.3303 44.7524 77.3303 45.6877C77.3303 46.6245 77.3287 47.5605 77.3303 48.4957C77.3311 48.7246 77.3382 48.9519 77.3485 49.1784Z" fill="white"/>
<path d="M80.7831 45.5948C81.3783 45.5988 81.9726 45.5988 82.5677 45.5964C82.7015 45.5956 82.7972 45.4989 82.798 45.362C82.802 44.8327 82.7996 44.3033 82.7996 43.7732H82.8138C82.8138 43.6229 82.8162 43.4719 82.8138 43.3201C82.8075 42.9425 82.8012 42.5642 82.7917 42.1874C82.7893 42.0962 82.6935 42.0026 82.6065 41.9884C82.5835 41.9845 82.5598 41.9727 82.5369 41.9727C81.9655 41.9727 81.3949 41.9711 80.8235 41.9727C80.8005 41.9727 80.7776 41.9837 80.7538 41.9876C80.6636 42.001 80.5726 42.0931 80.5647 42.1819C80.556 42.2826 80.5441 42.3825 80.5441 42.4832C80.5418 43.3405 80.5418 44.1979 80.5425 45.0553C80.5425 45.1567 80.5489 45.2574 80.556 45.3581C80.5647 45.4965 80.6518 45.5941 80.7831 45.5948Z" fill="white"/>
<path d="M79.5992 55.5135C79.5968 54.0937 79.5992 52.6747 79.596 51.255C79.596 51.0277 79.5778 50.8003 79.5636 50.573C79.558 50.4889 79.4504 50.3811 79.3713 50.3795C79.012 50.3717 78.6535 50.3614 78.295 50.363C77.2472 50.3677 77.335 50.2576 77.3311 51.3911C77.3271 52.6842 77.3303 53.9765 77.3303 55.2688C77.3303 55.4725 77.3287 55.6755 77.3271 55.8784C77.3271 55.983 77.32 56.064 77.3081 56.1333H79.6253C79.6127 55.9264 79.5992 55.7195 79.5992 55.5135Z" fill="white"/>
<path d="M82.8146 55.3719C82.8138 52.7605 82.8146 50.1498 82.8131 47.5384C82.8131 47.2852 82.802 47.0327 82.7925 46.7794C82.7885 46.6858 82.6959 46.5843 82.6073 46.5843C81.9868 46.5812 81.3656 46.5828 80.7443 46.5843C80.7206 46.5843 80.6921 46.5875 80.6755 46.6024C80.6391 46.6339 80.5837 46.6709 80.5805 46.7102C80.5615 46.9619 80.5433 47.2144 80.5433 47.4669C80.541 50.1042 80.5425 52.74 80.5418 55.3766C80.5418 55.6283 80.537 55.8808 80.5291 56.1325H82.8281C82.8194 55.8792 82.8146 55.6251 82.8146 55.3719Z" fill="white"/>
<path d="M85.8726 20.6371L101.704 36.3716L117.535 20.6371L128.442 30.5109H129.922L118.31 20H105.797L101.704 24.8484L97.6105 20H85.0978L73.4865 30.5109H74.9648L85.8726 20.6371Z" fill="white"/>
<path d="M123.648 33.6988H108.024L101.704 39.3542L95.3844 33.6988H79.7599L65.1974 47.1955H66.7478L80.5884 34.3666L101.704 53.2646L122.819 34.3666L136.66 47.1955H138.21L123.648 33.6988Z" fill="white"/>
<path d="M125.817 49.1784C125.81 49.335 125.694 49.4419 125.531 49.4529C125.437 49.46 125.341 49.4647 125.245 49.4647C124.887 49.4663 124.528 49.4687 124.171 49.4647C123.598 49.4577 123.572 49.4349 123.571 48.8127C123.567 46.7369 123.569 44.6635 123.571 42.5886C123.571 42.4635 123.585 42.3377 123.598 42.2118C123.61 42.0828 123.709 41.9798 123.837 41.9782C124.41 41.9735 124.982 41.9751 125.555 41.9751C125.579 41.9751 125.603 41.9892 125.625 41.9924C125.707 42.0073 125.8 42.1072 125.806 42.2008C125.819 42.4266 125.836 42.6531 125.836 42.8804C125.84 43.8164 125.838 44.7524 125.838 45.6877C125.838 46.6245 125.839 47.5605 125.837 48.4957C125.835 48.7246 125.828 48.9519 125.817 49.1784Z" fill="white"/>
<path d="M122.383 45.5948C121.788 45.5988 121.193 45.5988 120.598 45.5964C120.464 45.5956 120.369 45.4989 120.368 45.362C120.364 44.8327 120.366 44.3033 120.366 43.7732H120.351C120.351 43.6229 120.349 43.4719 120.351 43.3201C120.358 42.9425 120.365 42.5642 120.373 42.1874C120.376 42.0962 120.472 42.0026 120.559 41.9884C120.581 41.9845 120.605 41.9727 120.628 41.9727C121.2 41.9727 121.769 41.9711 122.342 41.9727C122.364 41.9727 122.388 41.9837 122.411 41.9876C122.501 42.001 122.592 42.0931 122.6 42.1819C122.609 42.2826 122.62 42.3825 122.62 42.4832C122.623 43.3405 122.623 44.1979 122.622 45.0553C122.622 45.1567 122.615 45.2574 122.608 45.3581C122.601 45.4965 122.514 45.5941 122.383 45.5948Z" fill="white"/>
<path d="M123.567 55.5135C123.569 54.0937 123.567 52.6747 123.57 51.255C123.57 51.0277 123.588 50.8003 123.602 50.573C123.609 50.4889 123.716 50.3811 123.795 50.3795C124.153 50.3717 124.512 50.3614 124.871 50.363C125.919 50.3677 125.831 50.2576 125.835 51.3911C125.839 52.6842 125.836 53.9765 125.836 55.2688C125.836 55.4725 125.837 55.6755 125.838 55.8784C125.839 55.983 125.846 56.064 125.858 56.1333H123.54C123.554 55.9264 123.567 55.7195 123.567 55.5135Z" fill="white"/>
<path d="M120.351 55.3719C120.352 52.7605 120.351 50.1498 120.354 47.5384C120.354 47.2852 120.365 47.0327 120.373 46.7794C120.377 46.6858 120.47 46.5843 120.559 46.5843C121.179 46.5812 121.8 46.5828 122.422 46.5843C122.445 46.5843 122.474 46.5875 122.49 46.6024C122.527 46.6339 122.582 46.6709 122.585 46.7102C122.604 46.9619 122.623 47.2144 122.623 47.4669C122.625 50.1042 122.623 52.74 122.624 55.3766C122.624 55.6283 122.63 55.8808 122.638 56.1325H120.339C120.347 55.8792 120.351 55.6251 120.351 55.3719Z" fill="white"/>
<path d="M83.8775 32.5725C83.8822 32.6724 83.9566 32.74 84.0603 32.7463C84.1212 32.751 84.1822 32.7549 84.2431 32.7549C84.4726 32.7557 84.7013 32.7573 84.93 32.7549C85.2949 32.7494 85.3123 32.7361 85.3131 32.3381C85.3154 31.0135 85.3138 29.6881 85.3131 28.3628C85.3131 28.2817 85.3044 28.2015 85.2964 28.1221C85.2877 28.0395 85.2244 27.9726 85.1429 27.9726C84.7773 27.9695 84.4109 27.9703 84.0453 27.9703C84.0302 27.9703 84.016 27.9789 84.0009 27.9813C83.9495 27.9907 83.8894 28.0552 83.8862 28.115C83.8775 28.2597 83.8672 28.4037 83.8664 28.5484C83.864 29.1478 83.8656 29.7448 83.8656 30.3425C83.8656 30.9403 83.8648 31.5389 83.8664 32.1367C83.8664 32.2806 83.8704 32.4262 83.8775 32.5725Z" fill="white"/>
<path d="M86.072 30.2828C86.4519 30.2851 86.8317 30.2851 87.2124 30.2836C87.2971 30.2828 87.358 30.2214 87.3588 30.1349C87.3612 29.7959 87.3596 29.4577 87.3596 29.121H87.3691C87.3691 29.0243 87.3707 28.9275 87.3691 28.8308C87.3651 28.5885 87.3612 28.347 87.3549 28.1056C87.3533 28.0489 87.2923 27.9884 87.2369 27.9797C87.2219 27.9766 87.2069 27.9703 87.1926 27.9703C86.8278 27.9687 86.463 27.9687 86.0981 27.9687C86.0831 27.9687 86.0681 27.9766 86.053 27.9781C85.9953 27.9876 85.9375 28.0458 85.9327 28.1024C85.9272 28.1669 85.9193 28.2314 85.9193 28.2951C85.9177 28.8426 85.9177 29.3916 85.9185 29.9383C85.9185 30.0028 85.9224 30.0673 85.9264 30.131C85.9319 30.2198 85.9881 30.282 86.072 30.2828Z" fill="white"/>
<path d="M85.1698 33.3386C84.9403 33.3339 84.7116 33.326 84.4821 33.3276C83.9566 33.3307 83.8799 33.2937 83.8688 33.6241H85.3004C85.2972 33.5706 85.2964 33.5155 85.2925 33.4613C85.2885 33.4078 85.2205 33.3386 85.1698 33.3386Z" fill="white"/>
<path d="M87.3549 31.0394C87.3525 30.9797 87.2939 30.9152 87.237 30.9152C86.8405 30.9136 86.4432 30.9136 86.0467 30.9152C86.0317 30.9152 86.0135 30.9167 86.0024 30.927C85.9794 30.9474 85.9438 30.971 85.9422 30.9962C85.9296 31.1566 85.9185 31.3179 85.9185 31.4791C85.9177 32.1949 85.9177 32.9091 85.9177 33.6257H87.3683C87.3683 32.9256 87.3683 32.2264 87.3683 31.5248C87.3683 31.3635 87.3612 31.2007 87.3549 31.0394Z" fill="white"/>
<path d="M118.29 32.7534C118.518 32.7565 118.748 32.755 118.976 32.7534C119.037 32.7534 119.098 32.7502 119.159 32.7455C119.262 32.7392 119.337 32.6716 119.341 32.5709C119.349 32.4262 119.353 32.2814 119.353 32.1351C119.354 31.5373 119.353 30.9388 119.353 30.341C119.353 29.7432 119.355 29.1454 119.353 28.5484C119.352 28.4021 119.342 28.2582 119.334 28.1126C119.33 28.0536 119.27 27.9892 119.218 27.9797C119.203 27.9774 119.189 27.9687 119.173 27.9687C118.807 27.9687 118.442 27.9671 118.075 27.9711C117.994 27.9711 117.93 28.0379 117.923 28.1205C117.914 28.1999 117.906 28.2802 117.906 28.3604C117.905 29.6866 117.903 31.0119 117.906 32.3365C117.907 32.7345 117.925 32.7487 118.29 32.7534Z" fill="white"/>
<path d="M115.862 30.1341C115.862 30.2206 115.923 30.282 116.009 30.2828C116.389 30.2843 116.769 30.2843 117.148 30.282C117.232 30.2812 117.288 30.2191 117.294 30.1302C117.298 30.0657 117.302 30.002 117.302 29.9375C117.303 29.3908 117.303 28.8418 117.301 28.2943C117.301 28.2298 117.294 28.1661 117.288 28.1016C117.283 28.045 117.225 27.9868 117.167 27.9773C117.152 27.9758 117.137 27.9679 117.123 27.9679C116.758 27.9679 116.394 27.9679 116.029 27.9695C116.013 27.9695 115.999 27.9758 115.984 27.9789C115.928 27.9876 115.867 28.0481 115.866 28.1048C115.859 28.3462 115.855 28.5877 115.851 28.83C115.849 28.9267 115.851 29.0235 115.851 29.1202H115.861C115.861 29.4569 115.859 29.7959 115.862 30.1341Z" fill="white"/>
<path d="M118.738 33.3284C118.509 33.3268 118.28 33.3331 118.051 33.3394C118.001 33.3401 117.932 33.4086 117.928 33.4621C117.924 33.5171 117.923 33.5714 117.92 33.6249H119.353C119.34 33.293 119.264 33.3299 118.738 33.3284Z" fill="white"/>
<path d="M117.277 30.9946C117.275 30.9702 117.24 30.9459 117.218 30.9254C117.206 30.9175 117.189 30.9144 117.173 30.9144C116.777 30.9136 116.379 30.9128 115.983 30.9136C115.926 30.9144 115.867 30.9789 115.866 31.0387C115.859 31.2007 115.851 31.3619 115.851 31.524C115.851 32.224 115.851 32.9233 115.851 33.6241H117.302C117.302 32.9091 117.302 32.1941 117.301 31.4776C117.301 31.3171 117.29 31.1559 117.277 30.9946Z" fill="white"/>
<path d="M34.1811 64.9687L36.2403 74.4201H36.3099L38.3691 64.9687H40.5494L37.5833 77.1078H34.9661L32 64.9687H34.1811Z" fill="white"/>
<path d="M47.7907 75.7195H52.065V77.1078H45.6967V64.9687H52.065V66.3562H47.7907V70.0846H51.5419V71.4721H47.7907V75.7195Z" fill="white"/>
<path d="M65.1515 71.0371C65.1515 72.2059 65.055 73.1876 64.8634 73.9851C64.6719 74.7843 64.3862 75.4246 64.0087 75.9099C63.6304 76.3952 63.1651 76.746 62.6127 76.9591C62.0603 77.1731 61.4232 77.2801 60.7015 77.2801C60.0391 77.2801 59.4748 77.2541 59.0095 77.2014C58.5442 77.1495 58.0907 77.0598 57.6491 76.9324V65.141C58.0907 65.0151 58.5442 64.9255 59.0095 64.872C59.4748 64.8216 60.0391 64.7941 60.7015 64.7941C61.4232 64.7941 62.0603 64.9011 62.6127 65.115C63.1651 65.329 63.6304 65.679 64.0087 66.1643C64.3862 66.6488 64.6719 67.2915 64.8634 68.0883C65.055 68.8882 65.1515 69.8706 65.1515 71.0371ZM63.0575 71.0371C63.0575 70.0673 62.9989 69.2594 62.8826 68.6192C62.7662 67.9773 62.6064 67.4716 62.403 67.1011C62.1996 66.7306 61.9527 66.4711 61.6615 66.3208C61.371 66.1714 61.0505 66.0959 60.7015 66.0959H59.7423V75.9807H60.7015C61.0505 75.9807 61.371 75.9044 61.6615 75.7549C61.9527 75.6055 62.1996 75.3451 62.403 74.9746C62.6064 74.6042 62.7662 74.0992 62.8826 73.4566C62.9989 72.8155 63.0575 72.0101 63.0575 71.0371Z" fill="white"/>
<path d="M72.4616 74.0732L71.6932 77.107H69.5121L72.6531 64.9687H75.2703L78.4113 77.107H76.231L75.4634 74.0732H72.4616ZM73.9969 67.7437H73.9273L72.741 72.6857H75.1658L73.9969 67.7437Z" fill="white"/>
<path d="M92.8052 64.9687L94.8652 74.4201H94.9341L96.9933 64.9687H99.1735L96.2074 77.1078H93.591L90.6249 64.9687H92.8052Z" fill="white"/>
<path d="M106.415 64.9687H104.321V77.107H106.415V64.9687Z" fill="white"/>
<path d="M114.616 75.7195H118.89V77.1078H112.521V64.9687H114.616V75.7195Z" fill="white"/>
<path d="M126.044 75.7195H130.317V77.1078H123.95V64.9687H126.044V75.7195Z" fill="white"/>
<path d="M137.368 74.0732L136.6 77.107H134.419L137.56 64.9687H140.176L143.318 77.107H141.136L140.369 74.0732H137.368ZM138.903 67.7437H138.833L137.646 72.6857H140.072L138.903 67.7437Z" fill="white"/>
<path d="M155.009 76.9332C154.74 77.0268 154.361 77.1078 153.866 77.177C153.371 77.2462 152.793 77.2808 152.13 77.2808C151.362 77.2808 150.699 77.1825 150.141 76.9859C149.583 76.7892 149.12 76.4549 148.754 75.9814C148.387 75.5079 148.117 74.8677 147.942 74.0646C147.768 73.2607 147.68 72.2523 147.68 71.0371C147.68 69.8234 147.768 68.8158 147.942 68.012C148.117 67.2089 148.375 66.5694 148.719 66.0951C149.061 65.6208 149.489 65.2857 150.001 65.0891C150.512 64.8924 151.106 64.7941 151.781 64.7941C152.396 64.7941 152.95 64.8287 153.439 64.8979C153.927 64.9687 154.304 65.049 154.572 65.1418V66.0959H152.305C151.932 66.0959 151.592 66.1706 151.284 66.3216C150.975 66.4711 150.708 66.7314 150.48 67.1011C150.254 67.4716 150.079 67.9766 149.957 68.6192C149.836 69.2594 149.775 70.0673 149.775 71.0371C149.775 72.0093 149.839 72.8155 149.967 73.4566C150.095 74.0984 150.275 74.6042 150.508 74.9746C150.74 75.3443 151.023 75.6055 151.354 75.7549C151.686 75.9044 152.06 75.9807 152.479 75.9807H152.916V70.518H155.01L155.009 76.9332Z" fill="white"/>
<path d="M163.034 75.7195H167.309V77.1078H160.94V64.9687H167.309V66.3562H163.034V70.0846H166.785V71.4721H163.034V75.7195Z" fill="white"/>
<path d="M57.0484 96.1891C57.1513 96.2229 57.2542 96.2701 57.3571 96.3275C57.4599 96.3857 57.5573 96.4644 57.6499 96.5627C57.7417 96.6618 57.824 96.7822 57.896 96.9253C57.968 97.0685 58.0282 97.2415 58.0756 97.446L58.3843 98.7737C58.4183 98.9303 58.4975 99.064 58.6209 99.1733C58.7444 99.2827 58.9224 99.3361 59.1551 99.3361V99.8985C59.1076 99.9182 59.0451 99.9363 58.9699 99.9489C58.833 99.9827 58.6549 100 58.4357 100C58.0456 100 57.7488 99.8977 57.547 99.6932C57.3452 99.4887 57.1956 99.1828 57.0999 98.773L56.7912 97.4452C56.716 97.1117 56.6132 96.8836 56.4834 96.7609C56.3528 96.639 56.1985 96.5777 56.0204 96.5777H55.8146V99.8978H54.5816V92.7463H55.8146V95.7604H56.0204C56.151 95.7604 56.2705 95.6991 56.3805 95.5771C56.4897 95.4537 56.5926 95.2255 56.6883 94.8928L56.997 93.8711C57.1204 93.4621 57.2779 93.1561 57.4694 92.9516C57.661 92.7463 57.949 92.6448 58.3328 92.6448C58.45 92.6448 58.5521 92.6496 58.6415 92.6606C58.7301 92.6708 58.8061 92.6818 58.867 92.6967C58.943 92.7156 59.0047 92.7337 59.0522 92.7463V93.3087C58.8196 93.3087 58.647 93.3582 58.5331 93.4566C58.4199 93.5549 58.336 93.6941 58.2814 93.8703L57.9736 94.892C57.8501 95.3011 57.7164 95.5944 57.5723 95.7754C57.4283 95.9555 57.2542 96.0798 57.0484 96.149V96.1891Z" fill="white"/>
<path d="M60.954 99.9992C60.7347 99.9992 60.5567 99.9827 60.4198 99.9489C60.3438 99.9347 60.2821 99.9182 60.2346 99.8985V99.3361C60.3644 99.3361 60.4847 99.3086 60.5939 99.2543C60.7039 99.1993 60.8036 99.1096 60.8922 98.9838C60.9809 98.8579 61.0529 98.6935 61.1083 98.4937C61.1629 98.2924 61.1969 98.0462 61.2112 97.7528L61.4676 92.7471H65.2702V99.8985H64.0372V93.5643H62.6602L62.4449 97.752C62.4244 98.1602 62.3729 98.5079 62.2906 98.7942C62.2083 99.0797 62.1039 99.3118 61.9772 99.4887C61.8506 99.6657 61.6994 99.7947 61.5253 99.8765C61.3496 99.9591 61.1605 99.9992 60.954 99.9992Z" fill="white"/>
<path d="M68.97 99.9992C68.7642 99.9992 68.564 99.9796 68.3685 99.9379C68.1738 99.8978 67.9974 99.8506 67.8399 99.7947V99.2331H68.5585C68.689 99.2331 68.8054 99.2142 68.9083 99.1773C69.0111 99.1403 69.1069 99.0695 69.1963 98.9672C69.285 98.8658 69.3657 98.7234 69.4377 98.5433C69.5097 98.3632 69.5762 98.1335 69.6379 97.8535C69.2272 97.8535 68.8908 97.7402 68.6313 97.5113C68.3709 97.284 68.1928 96.989 68.0963 96.628L67.0176 92.7455H68.2506L69.2992 96.5265C69.3404 96.6831 69.4052 96.8058 69.4947 96.8994C69.5833 96.9914 69.6822 97.037 69.7922 97.037L70.6659 92.7463H71.8989L70.7688 98.2633C70.5361 99.4211 69.9371 99.9992 68.97 99.9992Z" fill="white"/>
<path d="M75.0851 95.5056H75.6501C76.5001 95.5056 77.115 95.6896 77.4949 96.0617C77.8755 96.4337 78.0655 97.0142 78.0655 97.8039C78.0655 98.5457 77.8755 99.097 77.4949 99.4581C77.115 99.8191 76.5001 99.9992 75.6501 99.9992C75.26 99.9992 74.9276 99.9835 74.6538 99.9528C74.3792 99.9221 74.1125 99.871 73.8521 99.7947V92.7463H77.7062V93.5635H75.0851V95.5056ZM75.0851 96.3228V99.2339H75.6501C76.0411 99.2339 76.3355 99.123 76.5341 98.9004C76.7328 98.6794 76.8325 98.3136 76.8325 97.8031C76.8325 97.2651 76.7328 96.8829 76.5341 96.6587C76.3355 96.4345 76.0411 96.322 75.6501 96.322L75.0851 96.3228Z" fill="white"/>
<path d="M84.4892 92.7463V99.8978H83.2562V96.6791H81.406V99.8978H80.173V92.7463H81.406V95.8619H83.2562V92.7463H84.4892Z" fill="white"/>
<path d="M89.0627 95.5048C89.7338 95.5048 90.245 95.6881 90.594 96.057C90.9438 96.4243 91.1179 97.0071 91.1179 97.8031C91.1179 98.5457 90.932 99.0978 90.5584 99.4581C90.1849 99.8191 89.5834 99.9992 88.7548 99.9992C88.3639 99.9992 88.0315 99.9835 87.7577 99.9536C87.4839 99.9229 87.2164 99.8702 86.956 99.7955V92.7471H88.189V95.607C88.2507 95.5937 88.3243 95.5827 88.4106 95.5709C88.4961 95.5614 88.5799 95.552 88.6622 95.5402C88.7438 95.5307 88.8213 95.5229 88.8933 95.515C88.9654 95.5079 89.0215 95.5048 89.0627 95.5048ZM88.189 99.2339H88.7548C89.1181 99.2339 89.3967 99.123 89.5921 98.9004C89.7876 98.6802 89.8849 98.3144 89.8849 97.8024C89.8849 97.5239 89.8596 97.2887 89.8082 97.0976C89.7567 96.9064 89.6824 96.7531 89.5866 96.6382C89.4908 96.5218 89.3729 96.44 89.2328 96.392C89.092 96.3441 88.9329 96.3205 88.7548 96.3205H88.189V99.2339ZM93.0711 99.897H91.8373V92.7463H93.0711V99.897Z" fill="white"/>
<path d="M96.7709 99.8978H95.5379V92.7463H96.7194V97.446H96.7709L98.6726 92.7463H99.957V99.8978H98.7755V95.0966H98.724L96.7709 99.8978ZM97.7475 91.3171C97.9532 91.3171 98.1416 91.266 98.3125 91.1637C98.4843 91.0607 98.6212 90.9592 98.724 90.8562L99.2377 91.3667C99.0802 91.6262 98.876 91.826 98.6259 91.97C98.3758 92.1139 98.083 92.1847 97.7475 92.1847C97.4119 92.1847 97.1191 92.1131 96.869 91.97C96.6189 91.8268 96.4147 91.6262 96.2573 91.3667L96.7709 90.8562C96.8738 90.9592 97.0107 91.0607 97.1824 91.1637C97.3533 91.266 97.5417 91.3171 97.7475 91.3171Z" fill="white"/>
<path d="M108.487 96.1891C108.59 96.2229 108.692 96.2701 108.795 96.3275C108.898 96.3857 108.996 96.4644 109.088 96.5627C109.181 96.6618 109.262 96.7822 109.334 96.9253C109.406 97.0685 109.466 97.2415 109.515 97.446L109.823 98.7737C109.857 98.9303 109.937 99.064 110.06 99.1733C110.183 99.2827 110.361 99.3361 110.594 99.3361V99.8985C110.547 99.9182 110.484 99.9363 110.411 99.9489C110.273 99.9827 110.095 100 109.876 100C109.485 100 109.189 99.8977 108.987 99.6932C108.785 99.4887 108.636 99.1828 108.54 98.773L108.232 97.4452C108.155 97.1117 108.052 96.8836 107.922 96.7609C107.792 96.639 107.639 96.5777 107.459 96.5777H107.254V99.8978H106.021V92.7463H107.254V95.7604H107.459C107.59 95.7604 107.71 95.6991 107.82 95.5771C107.93 95.4537 108.032 95.2255 108.129 94.8928L108.438 93.8711C108.56 93.4621 108.718 93.1561 108.909 92.9516C109.101 92.7463 109.39 92.6448 109.773 92.6448C109.89 92.6448 109.992 92.6496 110.082 92.6606C110.172 92.6708 110.247 92.6818 110.308 92.6967C110.384 92.7156 110.445 92.7337 110.492 92.7463V93.3087C110.259 93.3087 110.087 93.3582 109.975 93.4566C109.86 93.5549 109.777 93.6941 109.723 93.8703L109.414 94.892C109.291 95.3011 109.158 95.5944 109.012 95.7754C108.868 95.9555 108.695 96.0798 108.489 96.149V96.1891H108.487Z" fill="white"/>
<path d="M115.475 96.0869C115.886 96.2308 116.204 96.4613 116.425 96.7822C116.648 97.1015 116.76 97.4932 116.76 97.9557C116.76 98.6243 116.563 99.1316 116.17 99.4785C115.775 99.8254 115.116 99.9992 114.191 99.9992C113.8 99.9992 113.468 99.9843 113.193 99.9528C112.918 99.9221 112.652 99.8702 112.391 99.7947V92.8493C112.652 92.7738 112.918 92.7219 113.193 92.6913C113.468 92.6606 113.8 92.6441 114.191 92.6441C114.965 92.6441 115.535 92.8116 115.902 93.1459C116.268 93.4794 116.45 93.9419 116.45 94.535C116.45 94.8409 116.366 95.1343 116.195 95.4136C116.022 95.692 115.783 95.9036 115.475 96.0475V96.0869ZM114.089 95.7596C114.425 95.7596 114.688 95.6613 114.88 95.4639C115.071 95.2665 115.167 94.9731 115.167 94.5853C115.167 94.1983 115.071 93.9049 114.88 93.7067C114.688 93.5101 114.425 93.4117 114.089 93.4117H113.626V95.7596H114.089ZM113.626 96.5265V99.2323H114.192C114.63 99.2323 114.954 99.1269 115.162 98.9153C115.373 98.7053 115.476 98.3687 115.476 97.9046C115.476 97.4146 115.372 97.063 115.162 96.8475C114.954 96.6335 114.63 96.5265 114.192 96.5265H113.626Z" fill="white"/>
<path d="M120.038 98.1091L119.586 99.897H118.302L120.152 92.7455H121.693L123.543 99.897H122.259L121.807 98.1091H120.038ZM120.943 94.3808H120.901L120.202 97.2919H121.631L120.943 94.3808Z" fill="white"/>
<path d="M126.678 99.8978H125.445V92.8493C125.705 92.7738 125.973 92.7219 126.246 92.6912C126.521 92.6606 126.853 92.6448 127.243 92.6448C127.668 92.6448 128.033 92.6928 128.339 92.788C128.643 92.8839 128.894 93.0342 129.088 93.2379C129.283 93.4416 129.428 93.7059 129.52 94.0292C129.612 94.3517 129.659 94.7418 129.659 95.198C129.659 95.681 129.614 96.0923 129.525 96.429C129.436 96.7656 129.303 97.0394 129.125 97.251C128.945 97.4625 128.727 97.6151 128.467 97.7103C128.207 97.8063 127.901 97.8543 127.552 97.8543C127.511 97.8543 127.455 97.8511 127.383 97.8432C127.311 97.8369 127.233 97.8275 127.152 97.8189C127.069 97.8078 126.986 97.7984 126.899 97.7882C126.814 97.7772 126.74 97.7662 126.678 97.7512L126.678 99.8978ZM127.243 97.037C127.434 97.037 127.604 97.0079 127.753 96.9505C127.9 96.8923 128.023 96.794 128.122 96.6547C128.222 96.5147 128.298 96.3275 128.348 96.0923C128.4 95.8572 128.426 95.5591 128.426 95.198C128.426 94.8519 128.401 94.5625 128.348 94.3344C128.298 94.1063 128.222 93.9246 128.122 93.7893C128.023 93.6524 127.9 93.5557 127.753 93.4975C127.604 93.44 127.435 93.4117 127.243 93.4117H126.678V97.037H127.243Z" fill="white"/>
<path d="M131.149 92.7463H135.568V93.5635H133.974V99.8978H132.742V93.5635H131.149V92.7463Z" fill="white"/>
<path d="M138.075 98.1091L137.623 99.897H136.339L138.188 92.7455H139.729L141.58 99.897H140.296L139.843 98.1091H138.075ZM138.98 94.3808H138.938L138.239 97.2919H139.668L138.98 94.3808Z" fill="white"/>
<path d="M143.481 99.9992C143.262 99.9992 143.083 99.9827 142.946 99.9489C142.87 99.9347 142.809 99.9182 142.762 99.8985V99.3361C142.893 99.3361 143.011 99.3086 143.122 99.2543C143.231 99.1993 143.331 99.1096 143.42 98.9838C143.507 98.8579 143.58 98.6935 143.635 98.4937C143.689 98.2924 143.724 98.0462 143.738 97.7528L143.994 92.7471H147.797V99.8985H146.564V93.5643H145.187L144.972 97.7528C144.951 98.161 144.899 98.5087 144.817 98.795C144.735 99.0805 144.63 99.3125 144.504 99.4895C144.378 99.6665 144.226 99.7955 144.053 99.8773C143.877 99.9591 143.687 99.9992 143.481 99.9992Z" fill="white"/>
</svg>
