<svg width="17" height="18" viewBox="0 0 17 18" fill="none" xmlns="http://www.w3.org/2000/svg">
<path fill-rule="evenodd" clip-rule="evenodd" d="M7.3845 5.94832C7.81625 5.36648 7.97107 4.75327 7.48277 4.212C6.38698 2.67868 5.65002 1.73048 5.18777 1.27385C4.30897 0.405741 2.86333 0.523167 2.10223 1.27311C1.69343 1.67591 1.55504 1.81424 1.13529 2.24058C-1.20275 4.57988 0.223108 9.52507 4.01356 13.3192C7.80315 17.1126 12.7479 18.5392 15.0908 16.1949C15.4782 15.8215 15.8061 15.4934 16.0647 15.2201C16.8106 14.4317 16.9238 13.0498 16.0598 12.1521C15.6169 11.6918 14.7127 10.9905 13.1148 9.84752C12.6255 9.40993 12.0452 9.50477 11.5133 9.85377C11.2574 10.0216 11.0712 10.1915 10.7195 10.5435L10.081 11.1823C9.99689 11.2665 8.85489 10.6946 7.74633 9.58493C6.63717 8.47468 6.06565 7.33262 6.14936 7.24892L6.78834 6.60959C6.8999 6.49792 6.95323 6.44385 7.02164 6.37196C7.16414 6.22219 7.28213 6.08627 7.3845 5.94832ZM11.2588 12.3609L11.8975 11.7218C12.091 11.5281 12.2165 11.409 12.3185 11.3269C13.7182 12.3321 14.5288 12.9641 14.86 13.3082C15.0587 13.5147 15.0279 13.8916 14.855 14.0743C14.6159 14.3271 14.3052 14.638 13.9239 15.0057C12.4088 16.5214 8.41732 15.3698 5.19168 12.141C1.96502 8.91117 0.813971 4.91907 2.31757 3.41464C2.73562 2.99005 2.86807 2.85767 3.27103 2.46062C3.42212 2.31174 3.83367 2.27832 4.01746 2.45988C4.37335 2.81144 5.03352 3.65673 6.00466 5.00951C5.95438 5.07193 5.89159 5.14246 5.81518 5.22277C5.75909 5.28172 5.71237 5.32908 5.61022 5.43133L4.97187 6.07004C3.88591 7.1559 4.81075 9.004 6.56821 10.7632C8.32447 12.5212 10.1733 13.447 11.2588 12.3609ZM9.71657 0.724607C13.3193 1.16131 16.176 4.01801 16.6127 7.62078L14.9665 7.89515C14.6487 4.99317 12.3442 2.68866 9.44221 2.3708L9.71657 0.724607ZM9.16761 4.01842C11.3689 4.2153 13.1221 5.96847 13.3189 8.16974L11.6675 8.44499C11.5974 6.94425 10.3931 5.73998 8.89237 5.6699L9.16761 4.01842Z" fill="#FFF9F7"/>
</svg>
