<svg width="93" height="139" viewBox="0 0 93 139" fill="none" xmlns="http://www.w3.org/2000/svg">
<g filter="url(#filter0_d)">
<path d="M53.8652 121.762C50.5174 125.254 46.3884 127 41.4783 127C36.5681 127 32.3833 125.254 28.9239 121.762C25.5761 118.271 23.9022 114.047 23.9022 109.091C23.9022 104.135 25.6319 99.967 29.0913 96.5879C32.5507 93.0962 36.6797 91.3503 41.4783 91.3503C46.2768 91.3503 50.4058 93.0962 53.8652 96.5879C57.3246 99.967 59.0543 104.135 59.0543 109.091C59.0543 114.047 57.3246 118.271 53.8652 121.762ZM55.037 83.7472H26.9152V58.5728C34.5036 57.2211 40.9761 54.9684 46.3326 51.8146C51.9123 48.5481 54.7022 44.831 54.7022 40.6635C54.7022 34.1305 49.2899 30.864 38.4652 30.864C29.0913 30.864 18.9362 33.8489 8 39.8187V13.7995C17.8203 7.26648 29.6493 4 43.487 4C54.8696 4 64.6341 6.98489 72.7804 12.9547C80.9268 18.8118 85 27.3159 85 38.467C85 46.8022 81.987 53.8984 75.9609 59.7555C70.158 65.6126 63.1833 69.8365 55.037 72.4272V83.7472Z" fill="#2A3589"/>
</g>
<defs>
<filter id="filter0_d" x="0" y="0" width="93" height="139" filterUnits="userSpaceOnUse" color-interpolation-filters="sRGB">
<feFlood flood-opacity="0" result="BackgroundImageFix"/>
<feColorMatrix in="SourceAlpha" type="matrix" values="0 0 0 0 0 0 0 0 0 0 0 0 0 0 0 0 0 0 127 0"/>
<feOffset dy="4"/>
<feGaussianBlur stdDeviation="4"/>
<feColorMatrix type="matrix" values="0 0 0 0 0.164706 0 0 0 0 0.207843 0 0 0 0 0.537255 0 0 0 0.5 0"/>
<feBlend mode="normal" in2="BackgroundImageFix" result="effect1_dropShadow"/>
<feBlend mode="normal" in="SourceGraphic" in2="effect1_dropShadow" result="shape"/>
</filter>
</defs>
</svg>
