<svg width="116" height="116" viewBox="0 0 116 116" fill="none" xmlns="http://www.w3.org/2000/svg">
<circle cx="58" cy="58" r="57" fill="white" stroke="#2A3589" stroke-width="2"/>
<path d="M91.8333 34.6667C92.4785 34.6667 93 34.144 93 33.5V28.8333C92.9953 25.6122 90.3867 23.0035 87.1667 23H38.1667C34.9467 23.0035 32.3368 25.6122 32.3333 28.8333V38.1667H26.5C24.568 38.1667 23 39.7335 23 41.6667V74.3333C23 76.2653 24.568 77.8333 26.5 77.8333H32.3333V81.3333H24.1667C23.5215 81.3333 23 81.8548 23 82.5V87.1667C23.0047 90.3867 25.6133 92.9953 28.8333 93H77.8333C81.0533 92.9953 83.662 90.3867 83.6667 87.1667V77.8333H89.5C91.432 77.8333 93 76.2653 93 74.3333V41.6667C93 39.7335 91.432 38.1667 89.5 38.1667H83.6667V34.6667H91.8333ZM90.6667 28.8333V32.3333H83.6667V28.8333C83.6667 26.9002 85.2335 25.3333 87.1667 25.3333C89.0987 25.3333 90.6667 26.9002 90.6667 28.8333ZM28.8333 90.6667C26.9013 90.6667 25.3333 89.0987 25.3333 87.1667V83.6667H72V87.1667C72.0047 88.4325 72.4247 89.6633 73.1958 90.6667H28.8333ZM81.3333 87.1667C81.3333 89.0987 79.7653 90.6667 77.8333 90.6667C75.9013 90.6667 74.3333 89.0987 74.3333 87.1667V82.5C74.3333 81.8548 73.8118 81.3333 73.1667 81.3333H34.6667V77.8333H81.3333V87.1667ZM90.6667 41.6667V74.3333C90.6667 74.9773 90.1452 75.5 89.5 75.5H26.5C25.8548 75.5 25.3333 74.9773 25.3333 74.3333V41.6667C25.3333 41.0215 25.8548 40.5 26.5 40.5H89.5C90.1452 40.5 90.6667 41.0215 90.6667 41.6667ZM34.6667 38.1667V28.8333C34.6667 26.9002 36.2335 25.3333 38.1667 25.3333H82.5292C81.758 26.3367 81.338 27.5663 81.3333 28.8333V38.1667H34.6667Z" fill="#2A3589"/>
<path d="M58 73.1667C66.3767 73.1667 73.1667 66.3767 73.1667 58C73.1667 49.6233 66.3767 42.8333 58 42.8333C49.6233 42.8333 42.8333 49.6233 42.8333 58C42.8427 66.372 49.628 73.1562 58 73.1667ZM58 45.1667C65.0875 45.1667 70.8333 50.9125 70.8333 58C70.8333 65.0875 65.0875 70.8333 58 70.8333C50.9125 70.8333 45.1667 65.0875 45.1667 58C45.176 50.916 50.916 45.1748 58 45.1667Z" fill="#2A3589"/>
<path d="M30 46.3333C30 45.689 30.5223 45.1667 31.1667 45.1667C31.811 45.1667 32.3333 45.689 32.3333 46.3333C32.3333 46.9777 31.811 47.5 31.1667 47.5C30.5223 47.5 30 46.9777 30 46.3333Z" fill="#2A3589"/>
<path d="M33.5 46.3333C33.5 45.689 34.0223 45.1667 34.6667 45.1667H39.3333C39.9777 45.1667 40.5 45.689 40.5 46.3333C40.5 46.9777 39.9777 47.5 39.3333 47.5H34.6667C34.0223 47.5 33.5 46.9777 33.5 46.3333Z" fill="#2A3589"/>
<path d="M30 49.8333C30 49.189 30.5223 48.6667 31.1667 48.6667C31.811 48.6667 32.3333 49.189 32.3333 49.8333C32.3333 50.4777 31.811 51 31.1667 51C30.5223 51 30 50.4777 30 49.8333Z" fill="#2A3589"/>
<path d="M33.5 49.8333C33.5 49.189 34.0223 48.6667 34.6667 48.6667H39.3333C39.9777 48.6667 40.5 49.189 40.5 49.8333C40.5 50.4777 39.9777 51 39.3333 51H34.6667C34.0223 51 33.5 50.4777 33.5 49.8333Z" fill="#2A3589"/>
<path d="M75.5 66.1667C75.5 65.5223 76.0223 65 76.6667 65C77.311 65 77.8333 65.5223 77.8333 66.1667C77.8333 66.811 77.311 67.3333 76.6667 67.3333C76.0223 67.3333 75.5 66.811 75.5 66.1667Z" fill="#2A3589"/>
<path d="M79 66.1667C79 65.5223 79.5223 65 80.1667 65H84.8333C85.4777 65 86 65.5223 86 66.1667C86 66.811 85.4777 67.3333 84.8333 67.3333H80.1667C79.5223 67.3333 79 66.811 79 66.1667Z" fill="#2A3589"/>
<path d="M75.5 69.6667C75.5 69.0223 76.0223 68.5 76.6667 68.5C77.311 68.5 77.8333 69.0223 77.8333 69.6667C77.8333 70.311 77.311 70.8333 76.6667 70.8333C76.0223 70.8333 75.5 70.311 75.5 69.6667Z" fill="#2A3589"/>
<path d="M79 69.6667C79 69.0223 79.5223 68.5 80.1667 68.5H84.8333C85.4777 68.5 86 69.0223 86 69.6667C86 70.311 85.4777 70.8333 84.8333 70.8333H80.1667C79.5223 70.8333 79 70.311 79 69.6667Z" fill="#2A3589"/>
<path d="M53.0498 66.2483C53.3602 66.2495 53.6577 66.127 53.8747 65.9065L67.0732 52.708L65.4235 51.0583L53.0498 63.432L50.5753 60.9587L48.9257 62.6083L52.225 65.9065C52.4432 66.1259 52.7407 66.2483 53.0498 66.2483Z" fill="#2A3589"/>
<circle cx="20" cy="20" r="20" fill="#338ABE"/>
<path d="M18.9224 29.312C17.1144 29.312 15.5384 28.928 14.1944 28.16V25.688C15.5704 26.536 17.1064 26.96 18.8024 26.96C20.0024 26.96 21.0184 26.656 21.8504 26.048C22.6824 25.424 23.0984 24.6 23.0984 23.576C23.0984 22.6 22.7064 21.8 21.9224 21.176C21.1544 20.552 20.1384 20.24 18.8744 20.24C17.5784 20.24 16.2344 20.48 14.8424 20.96L15.9464 12.2H24.5864V14.504H17.8664L17.3864 18.368C18.0424 18.192 18.7464 18.104 19.4984 18.104C21.3064 18.104 22.8024 18.608 23.9864 19.616C25.1704 20.624 25.7624 21.944 25.7624 23.576C25.7624 25.336 25.1064 26.728 23.7944 27.752C22.4824 28.792 20.8584 29.312 18.9224 29.312Z" fill="white"/>
</svg>
