<svg width="116" height="116" viewBox="0 0 116 116" fill="none" xmlns="http://www.w3.org/2000/svg">
<circle cx="58" cy="58" r="57" fill="white" stroke="#2A3589" stroke-width="2"/>
<path d="M90.6841 64.3252H89.6026V54.5847C89.6026 53.0431 88.8355 51.6774 87.6624 50.8477V49.5217C87.6624 47.5984 86.098 46.0328 84.1747 46.0328H83.3678L86.4569 41.4997C87.4926 39.9799 87.0988 37.9012 85.579 36.8655L64.6165 22.5798C63.8807 22.0776 62.9931 21.8934 62.1176 22.0596C61.242 22.2257 60.4845 22.7219 59.9823 23.4578L41.8898 50.0082H36.8545L38.0685 37.7121C38.0829 37.5736 38.172 37.4544 38.2973 37.4062C39.8629 36.8161 41.219 35.7142 42.1162 34.3027C42.1873 34.1919 42.3197 34.1281 42.4582 34.1425L50.355 34.9217C50.921 34.9771 51.4244 34.5652 51.481 33.9992C51.5364 33.4332 51.1245 32.9298 50.5573 32.8732L42.6606 32.0928C41.7441 32.0024 40.8697 32.4251 40.3784 33.1971C39.7184 34.234 38.7212 35.0445 37.5699 35.4781C36.704 35.8045 36.109 36.5825 36.0175 37.5086L34.7843 50.0082H33.4716L35.3925 30.5597C35.4611 29.8599 36.0874 29.3457 36.7871 29.4155L52.7467 30.9932C53.3128 31.0474 53.8162 30.6355 53.8728 30.0695C53.9282 29.5035 53.5151 29.0001 52.9491 28.9435L36.9918 27.367C35.1612 27.1863 33.5258 28.528 33.3451 30.3573L31.7952 46.0328H29.1589C27.2356 46.0328 25.67 47.5984 25.67 49.5217V50.4261C24.0959 51.1511 23 52.7421 23 54.5847V89.6834C23 92.2065 25.0534 94.2598 27.5764 94.2598H85.0274C87.5504 94.2598 89.6038 92.2065 89.6038 89.6834V79.9429H90.6853C91.9619 79.9429 93 78.9047 93 77.6282V66.6387C92.9988 65.3633 91.9607 64.3252 90.6841 64.3252ZM84.1747 48.0934C84.9624 48.0934 85.6043 48.7341 85.6043 49.5229V50.048C85.414 50.0227 85.2225 50.0094 85.0274 50.0094H80.6581L81.9636 48.0934H84.1747ZM61.684 24.6187C61.8767 24.3369 62.1657 24.1466 62.5018 24.084C62.5812 24.0684 62.6619 24.0611 62.7414 24.0611C62.9943 24.0611 63.2436 24.137 63.4568 24.2839L84.4192 38.5696C85.0009 38.9658 85.1514 39.7607 84.7552 40.3412L78.1664 50.0094H76.5851L79.8163 45.2692C80.3414 44.5009 80.3835 43.5218 79.9283 42.7161C79.3249 41.6442 79.0792 40.3833 79.2382 39.1645C79.3574 38.2577 78.9576 37.3725 78.1965 36.8534L67.3299 29.4481C66.57 28.929 65.5993 28.882 64.7984 29.324C63.7217 29.919 62.4584 30.1514 61.2396 29.9804C60.3364 29.8551 59.4211 30.2622 58.9044 31.0197L45.9616 50.0082H44.3803L61.684 24.6187ZM62.1381 42.1031C57.6544 42.1031 53.9739 45.598 53.6741 50.0082H48.4557L60.6062 32.1771C60.6748 32.0771 60.7892 32.0157 60.9072 32.0157C60.9229 32.0157 60.9385 32.0157 60.9542 32.0181C62.6114 32.2505 64.3299 31.9338 65.7932 31.1245C65.9076 31.0607 66.0557 31.0703 66.1701 31.1486L77.0355 38.5539C77.1499 38.6322 77.2113 38.7659 77.1957 38.8972C76.9789 40.5543 77.3125 42.2705 78.1339 43.7277C78.1989 43.8445 78.1917 43.9939 78.1134 44.1095L74.0934 50.0094H70.6032C70.3022 45.5992 66.6217 42.1031 62.1381 42.1031ZM68.5378 50.0082H55.7383C56.0333 46.7361 58.79 44.1625 62.1381 44.1625C65.4861 44.1625 68.2428 46.7361 68.5378 50.0082ZM27.7294 49.5217C27.7294 48.7341 28.3701 48.0922 29.1589 48.0922H31.5916L31.4026 50.0082H27.7294V49.5217ZM25.0594 54.5847C25.0594 53.1973 26.189 52.0676 27.5764 52.0676H85.0274C86.4148 52.0676 87.5432 53.1973 87.5432 54.5847V57.4425H25.0594V54.5847ZM87.5432 89.6834C87.5432 91.0708 86.4136 92.2005 85.0274 92.2005H27.5764C26.189 92.2005 25.0594 91.0708 25.0594 89.6834V86.8256H30.6113C31.1798 86.8256 31.6398 86.3655 31.6398 85.7959C31.6398 85.2274 31.1798 84.7674 30.6113 84.7674H25.0594V59.5019H87.5432V64.3252H77.7545C74.6702 64.3252 71.9978 66.1233 70.7297 68.7258C70.7261 68.7355 70.7212 68.7439 70.7164 68.7511C70.7056 68.774 70.696 68.7969 70.6851 68.8198C70.5346 69.1401 70.4033 69.4725 70.2961 69.8145C70.2961 69.8157 70.2961 69.8157 70.2961 69.8169C70.0685 70.5492 69.9445 71.3284 69.9445 72.134C69.9445 76.4407 73.4478 79.9429 77.7545 79.9429H87.5432V84.7674H37.2038C36.6353 84.7674 36.1741 85.2286 36.1741 85.7959C36.1741 86.3655 36.6353 86.8256 37.2038 86.8256H87.542V89.6834H87.5432ZM90.9394 77.6282C90.9394 77.7691 90.825 77.8835 90.6841 77.8835H77.7545C75.5735 77.8835 73.673 76.6635 72.6987 74.8727C72.6542 74.7908 72.612 74.7089 72.5723 74.6246C72.4916 74.4572 72.4193 74.285 72.3531 74.1091C72.1267 73.4925 72.0039 72.8289 72.0039 72.134C72.0039 71.4404 72.1279 70.7756 72.3531 70.159C72.4181 69.9831 72.4904 69.8109 72.5723 69.6435C72.6132 69.5592 72.6554 69.4773 72.6987 69.3954C73.673 67.6034 75.5735 66.3834 77.7545 66.3834H90.6841C90.825 66.3834 90.9394 66.499 90.9394 66.6387V77.6282Z" fill="#2A3589"/>
<path d="M77.9953 67.9573C75.6915 67.9573 73.8176 69.8312 73.8176 72.1351C73.8176 74.439 75.6915 76.3117 77.9953 76.3117C80.2992 76.3117 82.1731 74.4377 82.1731 72.1351C82.1731 69.8324 80.2992 67.9573 77.9953 67.9573ZM77.9953 74.2523C76.8272 74.2523 75.8769 73.3021 75.8769 72.1351C75.8769 70.9681 76.8272 70.0167 77.9953 70.0167C79.1635 70.0167 80.1137 70.9669 80.1137 72.1351C80.1137 73.3021 79.1623 74.2523 77.9953 74.2523Z" fill="#2A3589"/>
<circle cx="20" cy="20" r="20" fill="#338ABE"/>
<path d="M24.3594 29H21.7674V24.608H13.0554V22.592L21.7674 12.2H24.3594V22.352H26.9754V24.608H24.3594V29ZM21.7674 15.584L16.0554 22.352H21.7674V15.584Z" fill="white"/>
</svg>
