<svg width="116" height="116" viewBox="0 0 116 116" fill="none" xmlns="http://www.w3.org/2000/svg">
<circle cx="58" cy="58" r="57" fill="white" stroke="#2A3589" stroke-width="2"/>
<mask id="path-2-inside-1" fill="white">
<path d="M77.8332 45.1674V55.6674H75.4999L78.9999 60.334L82.4999 55.6674H80.1665V45.1674C80.1665 43.5 77.8332 43.5 77.8332 45.1674Z"/>
<path d="M37 76.6674H39.3333L35.8333 72.0007L32.3333 76.6674H34.6666V87.1674C34.6666 89 37 89 37 87.1674V76.6674Z"/>
<path d="M69.6666 89.5006C75.4657 89.5006 80.1665 84.7998 80.1665 79.0006C80.1665 73.2015 75.4657 68.5007 69.6666 68.5007C63.8674 68.5007 59.1666 73.2015 59.1666 79.0006C59.1734 84.7969 63.8708 89.4938 69.6666 89.5006ZM69.6666 70.834C74.1771 70.834 77.8332 74.4906 77.8332 79.0006C77.8332 83.5112 74.1771 87.1673 69.6666 87.1673C65.1566 87.1673 61.4999 83.5112 61.4999 79.0006C61.5051 74.4923 65.1583 70.8391 69.6666 70.834Z"/>
<path d="M67.3332 81.334H64.9999C64.9999 83.2669 66.567 84.834 68.4999 84.834V86.0007H70.8332V84.834C72.7661 84.834 74.3332 83.2669 74.3332 81.334C74.3332 79.4012 72.7661 77.834 70.8332 77.834V75.5007C71.4775 75.5007 71.9999 76.0231 71.9999 76.6674H74.3332C74.3332 74.7345 72.7661 73.1674 70.8332 73.1674V72.0007H68.4999V73.1674C66.567 73.1674 64.9999 74.7345 64.9999 76.6674C64.9999 78.6002 66.567 80.1674 68.4999 80.1674V82.5007C67.8556 82.5007 67.3332 81.9783 67.3332 81.334ZM67.3332 76.6674C67.3332 76.0231 67.8556 75.5007 68.4999 75.5007V77.834C67.8556 77.834 67.3332 77.3116 67.3332 76.6674ZM70.8332 80.1674C71.4775 80.1674 71.9999 80.6897 71.9999 81.334C71.9999 81.9783 71.4775 82.5007 70.8332 82.5007V80.1674Z"/>
<path d="M91.8332 65.0001H71.4747V62.6667C71.4747 62.0224 70.9529 61.5001 70.308 61.5001H67.3332V58.0001C67.3332 57.3558 66.8109 56.8334 66.1666 56.8334V45.1668C66.8109 45.1668 67.3332 44.6444 67.3332 44.0001V40.5001H68.4999C69.1442 40.5001 69.6666 39.9777 69.6666 39.3334V37.0001H70.8332C71.4775 37.0001 71.9999 36.4777 71.9999 35.8335V31.1668C71.9999 30.6512 71.6621 30.1972 71.1682 30.0491L47.8349 23.0491C47.6162 22.9836 47.3837 22.9836 47.165 23.0491L23.8317 30.0491C23.3384 30.1972 23 30.6512 23 31.1668V35.8335C23 36.4777 23.5224 37.0001 24.1667 37.0001H25.3333V39.3334C25.3333 39.9777 25.8557 40.5001 26.5 40.5001H27.6667V44.0001C27.6667 44.6444 28.189 45.1668 28.8333 45.1668V56.8334C28.189 56.8334 27.6667 57.3558 27.6667 58.0001V61.5001H26.5C25.8557 61.5001 25.3333 62.0224 25.3333 62.6667V65.0001C25.3333 66.9329 26.9005 68.5 28.8333 68.5H46.3333V91.8333C46.3333 92.4776 46.8557 93 47.4999 93H91.8332C92.4775 93 92.9999 92.4776 92.9999 91.8333V66.1667C92.9999 65.5224 92.4775 65.0001 91.8332 65.0001ZM90.6665 67.3334V70.6864C89.0242 70.2586 87.7413 68.9757 87.3135 67.3334H90.6665ZM84.938 67.3334C85.4393 70.2649 87.7351 72.5606 90.6665 73.0619V84.9382C87.7351 85.4395 85.4393 87.7358 84.938 90.6667H54.3951C53.8938 87.7358 51.5981 85.4395 48.6666 84.9382V73.0619C51.5981 72.5606 53.8938 70.2649 54.3951 67.3334H84.938ZM48.6666 70.6676V67.3334H52.0008C51.5742 68.966 50.2993 70.2409 48.6666 70.6676ZM53.3333 61.5001V58.0001C53.3333 57.3558 52.8109 56.8334 52.1666 56.8334V45.1668C52.8109 45.1668 53.3333 44.6444 53.3333 44.0001V40.5001H55.6666V44.0001C55.6666 44.6444 56.189 45.1668 56.8333 45.1668V56.8334C56.189 56.8334 55.6666 57.3558 55.6666 58.0001V61.5001H53.3333ZM39.3333 61.5001V58.0001C39.3333 57.3558 38.8109 56.8334 38.1666 56.8334V45.1668C38.8109 45.1668 39.3333 44.6444 39.3333 44.0001V40.5001H41.6666V44.0001C41.6666 44.6444 42.189 45.1668 42.8333 45.1668V56.8334C42.189 56.8334 41.6666 57.3558 41.6666 58.0001V61.5001H39.3333ZM49.8333 56.8334H45.1666V45.1668H49.8333V56.8334ZM50.9999 42.8334H44V40.5001H50.9999V42.8334ZM44 59.1667H50.9999V61.5001H44V59.1667ZM57.9999 59.1667H64.9999V61.5001H57.9999V59.1667ZM63.8333 56.8334H59.1666V45.1668H63.8333V56.8334ZM64.9999 42.8334H57.9999V40.5001H64.9999V42.8334ZM25.3333 32.035L47.4999 25.3847L69.6666 32.035V34.6668H25.3333V32.035ZM67.3332 37.0001V38.1668H27.6667V37.0001H67.3332ZM37 40.5001V42.8334H30V40.5001H37ZM31.1666 45.1668H35.8333V56.8334H31.1666V45.1668ZM30 59.1667H37V61.5001H30V59.1667ZM46.3333 66.1667H28.8333C28.189 66.1667 27.6667 65.6443 27.6667 65.0001V63.8334H69.1413V65.0001H47.4999C46.8557 65.0001 46.3333 65.5224 46.3333 66.1667ZM48.6666 87.3325C50.2993 87.7591 51.5742 89.034 52.0008 90.6667H48.6666V87.3325ZM90.6665 90.6667H87.3135C87.7413 89.0243 89.0242 87.7415 90.6665 87.3137V90.6667Z"/>
</mask>
<path d="M77.8332 45.1674V55.6674H75.4999L78.9999 60.334L82.4999 55.6674H80.1665V45.1674C80.1665 43.5 77.8332 43.5 77.8332 45.1674Z" fill="#2A3589"/>
<path d="M37 76.6674H39.3333L35.8333 72.0007L32.3333 76.6674H34.6666V87.1674C34.6666 89 37 89 37 87.1674V76.6674Z" fill="#2A3589"/>
<path d="M69.6666 89.5006C75.4657 89.5006 80.1665 84.7998 80.1665 79.0006C80.1665 73.2015 75.4657 68.5007 69.6666 68.5007C63.8674 68.5007 59.1666 73.2015 59.1666 79.0006C59.1734 84.7969 63.8708 89.4938 69.6666 89.5006ZM69.6666 70.834C74.1771 70.834 77.8332 74.4906 77.8332 79.0006C77.8332 83.5112 74.1771 87.1673 69.6666 87.1673C65.1566 87.1673 61.4999 83.5112 61.4999 79.0006C61.5051 74.4923 65.1583 70.8391 69.6666 70.834Z" fill="#2A3589"/>
<path d="M67.3332 81.334H64.9999C64.9999 83.2669 66.567 84.834 68.4999 84.834V86.0007H70.8332V84.834C72.7661 84.834 74.3332 83.2669 74.3332 81.334C74.3332 79.4012 72.7661 77.834 70.8332 77.834V75.5007C71.4775 75.5007 71.9999 76.0231 71.9999 76.6674H74.3332C74.3332 74.7345 72.7661 73.1674 70.8332 73.1674V72.0007H68.4999V73.1674C66.567 73.1674 64.9999 74.7345 64.9999 76.6674C64.9999 78.6002 66.567 80.1674 68.4999 80.1674V82.5007C67.8556 82.5007 67.3332 81.9783 67.3332 81.334ZM67.3332 76.6674C67.3332 76.0231 67.8556 75.5007 68.4999 75.5007V77.834C67.8556 77.834 67.3332 77.3116 67.3332 76.6674ZM70.8332 80.1674C71.4775 80.1674 71.9999 80.6897 71.9999 81.334C71.9999 81.9783 71.4775 82.5007 70.8332 82.5007V80.1674Z" fill="#2A3589"/>
<path d="M91.8332 65.0001H71.4747V62.6667C71.4747 62.0224 70.9529 61.5001 70.308 61.5001H67.3332V58.0001C67.3332 57.3558 66.8109 56.8334 66.1666 56.8334V45.1668C66.8109 45.1668 67.3332 44.6444 67.3332 44.0001V40.5001H68.4999C69.1442 40.5001 69.6666 39.9777 69.6666 39.3334V37.0001H70.8332C71.4775 37.0001 71.9999 36.4777 71.9999 35.8335V31.1668C71.9999 30.6512 71.6621 30.1972 71.1682 30.0491L47.8349 23.0491C47.6162 22.9836 47.3837 22.9836 47.165 23.0491L23.8317 30.0491C23.3384 30.1972 23 30.6512 23 31.1668V35.8335C23 36.4777 23.5224 37.0001 24.1667 37.0001H25.3333V39.3334C25.3333 39.9777 25.8557 40.5001 26.5 40.5001H27.6667V44.0001C27.6667 44.6444 28.189 45.1668 28.8333 45.1668V56.8334C28.189 56.8334 27.6667 57.3558 27.6667 58.0001V61.5001H26.5C25.8557 61.5001 25.3333 62.0224 25.3333 62.6667V65.0001C25.3333 66.9329 26.9005 68.5 28.8333 68.5H46.3333V91.8333C46.3333 92.4776 46.8557 93 47.4999 93H91.8332C92.4775 93 92.9999 92.4776 92.9999 91.8333V66.1667C92.9999 65.5224 92.4775 65.0001 91.8332 65.0001ZM90.6665 67.3334V70.6864C89.0242 70.2586 87.7413 68.9757 87.3135 67.3334H90.6665ZM84.938 67.3334C85.4393 70.2649 87.7351 72.5606 90.6665 73.0619V84.9382C87.7351 85.4395 85.4393 87.7358 84.938 90.6667H54.3951C53.8938 87.7358 51.5981 85.4395 48.6666 84.9382V73.0619C51.5981 72.5606 53.8938 70.2649 54.3951 67.3334H84.938ZM48.6666 70.6676V67.3334H52.0008C51.5742 68.966 50.2993 70.2409 48.6666 70.6676ZM53.3333 61.5001V58.0001C53.3333 57.3558 52.8109 56.8334 52.1666 56.8334V45.1668C52.8109 45.1668 53.3333 44.6444 53.3333 44.0001V40.5001H55.6666V44.0001C55.6666 44.6444 56.189 45.1668 56.8333 45.1668V56.8334C56.189 56.8334 55.6666 57.3558 55.6666 58.0001V61.5001H53.3333ZM39.3333 61.5001V58.0001C39.3333 57.3558 38.8109 56.8334 38.1666 56.8334V45.1668C38.8109 45.1668 39.3333 44.6444 39.3333 44.0001V40.5001H41.6666V44.0001C41.6666 44.6444 42.189 45.1668 42.8333 45.1668V56.8334C42.189 56.8334 41.6666 57.3558 41.6666 58.0001V61.5001H39.3333ZM49.8333 56.8334H45.1666V45.1668H49.8333V56.8334ZM50.9999 42.8334H44V40.5001H50.9999V42.8334ZM44 59.1667H50.9999V61.5001H44V59.1667ZM57.9999 59.1667H64.9999V61.5001H57.9999V59.1667ZM63.8333 56.8334H59.1666V45.1668H63.8333V56.8334ZM64.9999 42.8334H57.9999V40.5001H64.9999V42.8334ZM25.3333 32.035L47.4999 25.3847L69.6666 32.035V34.6668H25.3333V32.035ZM67.3332 37.0001V38.1668H27.6667V37.0001H67.3332ZM37 40.5001V42.8334H30V40.5001H37ZM31.1666 45.1668H35.8333V56.8334H31.1666V45.1668ZM30 59.1667H37V61.5001H30V59.1667ZM46.3333 66.1667H28.8333C28.189 66.1667 27.6667 65.6443 27.6667 65.0001V63.8334H69.1413V65.0001H47.4999C46.8557 65.0001 46.3333 65.5224 46.3333 66.1667ZM48.6666 87.3325C50.2993 87.7591 51.5742 89.034 52.0008 90.6667H48.6666V87.3325ZM90.6665 90.6667H87.3135C87.7413 89.0243 89.0242 87.7415 90.6665 87.3137V90.6667Z" fill="#2A3589"/>
<path d="M77.8332 45.1674V55.6674H75.4999L78.9999 60.334L82.4999 55.6674H80.1665V45.1674C80.1665 43.5 77.8332 43.5 77.8332 45.1674Z" stroke="white" stroke-width="0.4" mask="url(#path-2-inside-1)"/>
<path d="M37 76.6674H39.3333L35.8333 72.0007L32.3333 76.6674H34.6666V87.1674C34.6666 89 37 89 37 87.1674V76.6674Z" stroke="white" stroke-width="0.4" mask="url(#path-2-inside-1)"/>
<path d="M69.6666 89.5006C75.4657 89.5006 80.1665 84.7998 80.1665 79.0006C80.1665 73.2015 75.4657 68.5007 69.6666 68.5007C63.8674 68.5007 59.1666 73.2015 59.1666 79.0006C59.1734 84.7969 63.8708 89.4938 69.6666 89.5006ZM69.6666 70.834C74.1771 70.834 77.8332 74.4906 77.8332 79.0006C77.8332 83.5112 74.1771 87.1673 69.6666 87.1673C65.1566 87.1673 61.4999 83.5112 61.4999 79.0006C61.5051 74.4923 65.1583 70.8391 69.6666 70.834Z" stroke="white" stroke-width="0.4" mask="url(#path-2-inside-1)"/>
<path d="M67.3332 81.334H64.9999C64.9999 83.2669 66.567 84.834 68.4999 84.834V86.0007H70.8332V84.834C72.7661 84.834 74.3332 83.2669 74.3332 81.334C74.3332 79.4012 72.7661 77.834 70.8332 77.834V75.5007C71.4775 75.5007 71.9999 76.0231 71.9999 76.6674H74.3332C74.3332 74.7345 72.7661 73.1674 70.8332 73.1674V72.0007H68.4999V73.1674C66.567 73.1674 64.9999 74.7345 64.9999 76.6674C64.9999 78.6002 66.567 80.1674 68.4999 80.1674V82.5007C67.8556 82.5007 67.3332 81.9783 67.3332 81.334ZM67.3332 76.6674C67.3332 76.0231 67.8556 75.5007 68.4999 75.5007V77.834C67.8556 77.834 67.3332 77.3116 67.3332 76.6674ZM70.8332 80.1674C71.4775 80.1674 71.9999 80.6897 71.9999 81.334C71.9999 81.9783 71.4775 82.5007 70.8332 82.5007V80.1674Z" stroke="white" stroke-width="0.4" mask="url(#path-2-inside-1)"/>
<path d="M91.8332 65.0001H71.4747V62.6667C71.4747 62.0224 70.9529 61.5001 70.308 61.5001H67.3332V58.0001C67.3332 57.3558 66.8109 56.8334 66.1666 56.8334V45.1668C66.8109 45.1668 67.3332 44.6444 67.3332 44.0001V40.5001H68.4999C69.1442 40.5001 69.6666 39.9777 69.6666 39.3334V37.0001H70.8332C71.4775 37.0001 71.9999 36.4777 71.9999 35.8335V31.1668C71.9999 30.6512 71.6621 30.1972 71.1682 30.0491L47.8349 23.0491C47.6162 22.9836 47.3837 22.9836 47.165 23.0491L23.8317 30.0491C23.3384 30.1972 23 30.6512 23 31.1668V35.8335C23 36.4777 23.5224 37.0001 24.1667 37.0001H25.3333V39.3334C25.3333 39.9777 25.8557 40.5001 26.5 40.5001H27.6667V44.0001C27.6667 44.6444 28.189 45.1668 28.8333 45.1668V56.8334C28.189 56.8334 27.6667 57.3558 27.6667 58.0001V61.5001H26.5C25.8557 61.5001 25.3333 62.0224 25.3333 62.6667V65.0001C25.3333 66.9329 26.9005 68.5 28.8333 68.5H46.3333V91.8333C46.3333 92.4776 46.8557 93 47.4999 93H91.8332C92.4775 93 92.9999 92.4776 92.9999 91.8333V66.1667C92.9999 65.5224 92.4775 65.0001 91.8332 65.0001ZM90.6665 67.3334V70.6864C89.0242 70.2586 87.7413 68.9757 87.3135 67.3334H90.6665ZM84.938 67.3334C85.4393 70.2649 87.7351 72.5606 90.6665 73.0619V84.9382C87.7351 85.4395 85.4393 87.7358 84.938 90.6667H54.3951C53.8938 87.7358 51.5981 85.4395 48.6666 84.9382V73.0619C51.5981 72.5606 53.8938 70.2649 54.3951 67.3334H84.938ZM48.6666 70.6676V67.3334H52.0008C51.5742 68.966 50.2993 70.2409 48.6666 70.6676ZM53.3333 61.5001V58.0001C53.3333 57.3558 52.8109 56.8334 52.1666 56.8334V45.1668C52.8109 45.1668 53.3333 44.6444 53.3333 44.0001V40.5001H55.6666V44.0001C55.6666 44.6444 56.189 45.1668 56.8333 45.1668V56.8334C56.189 56.8334 55.6666 57.3558 55.6666 58.0001V61.5001H53.3333ZM39.3333 61.5001V58.0001C39.3333 57.3558 38.8109 56.8334 38.1666 56.8334V45.1668C38.8109 45.1668 39.3333 44.6444 39.3333 44.0001V40.5001H41.6666V44.0001C41.6666 44.6444 42.189 45.1668 42.8333 45.1668V56.8334C42.189 56.8334 41.6666 57.3558 41.6666 58.0001V61.5001H39.3333ZM49.8333 56.8334H45.1666V45.1668H49.8333V56.8334ZM50.9999 42.8334H44V40.5001H50.9999V42.8334ZM44 59.1667H50.9999V61.5001H44V59.1667ZM57.9999 59.1667H64.9999V61.5001H57.9999V59.1667ZM63.8333 56.8334H59.1666V45.1668H63.8333V56.8334ZM64.9999 42.8334H57.9999V40.5001H64.9999V42.8334ZM25.3333 32.035L47.4999 25.3847L69.6666 32.035V34.6668H25.3333V32.035ZM67.3332 37.0001V38.1668H27.6667V37.0001H67.3332ZM37 40.5001V42.8334H30V40.5001H37ZM31.1666 45.1668H35.8333V56.8334H31.1666V45.1668ZM30 59.1667H37V61.5001H30V59.1667ZM46.3333 66.1667H28.8333C28.189 66.1667 27.6667 65.6443 27.6667 65.0001V63.8334H69.1413V65.0001H47.4999C46.8557 65.0001 46.3333 65.5224 46.3333 66.1667ZM48.6666 87.3325C50.2993 87.7591 51.5742 89.034 52.0008 90.6667H48.6666V87.3325ZM90.6665 90.6667H87.3135C87.7413 89.0243 89.0242 87.7415 90.6665 87.3137V90.6667Z" stroke="white" stroke-width="0.4" mask="url(#path-2-inside-1)"/>
<circle cx="19.3333" cy="19.3333" r="19.3333" fill="#338ABE"/>
<path d="M25.0556 27.9333H13.3676V26.0133L18.6476 21.0693C19.7676 20.0293 20.5916 19.1333 21.1196 18.3813C21.5996 17.6613 21.8396 16.8933 21.8396 16.0773C21.8396 15.2293 21.5276 14.5493 20.9036 14.0373C20.2956 13.5093 19.4956 13.2453 18.5036 13.2453C16.8396 13.2453 15.2716 13.9413 13.7996 15.3333V12.5733C15.1756 11.4053 16.8316 10.8213 18.7676 10.8213C20.3516 10.8213 21.6956 11.2773 22.7996 12.1893C23.9196 13.1013 24.4796 14.2933 24.4796 15.7653C24.4796 16.9013 24.1996 17.9333 23.6396 18.8613C23.0476 19.8053 22.1036 20.8933 20.8076 22.1253L17.1836 25.5813H25.0556V27.9333Z" fill="white"/>
</svg>
