<svg width="116" height="116" viewBox="0 0 116 116" fill="none" xmlns="http://www.w3.org/2000/svg">
<circle cx="58" cy="58" r="57" fill="white" stroke="#2A3589" stroke-width="2"/>
<path d="M29.7896 87.5216C30.5138 87.5216 31.1008 86.9345 31.1008 86.2104C31.1008 85.4862 30.5138 84.8992 29.7896 84.8992C29.0655 84.8992 28.4785 85.4862 28.4785 86.2104C28.4785 86.9345 29.0655 87.5216 29.7896 87.5216Z" fill="#2A3589"/>
<path d="M91.6889 23H80.7331C80.0109 23 79.4219 23.5878 79.4219 24.3112V25.7988L77.5369 25.7871C76.8089 25.7871 76.2211 26.3715 76.2164 27.0902C76.2141 27.4407 76.3484 27.7703 76.595 28.0192C76.8416 28.2681 77.1688 28.4072 77.5194 28.4095L79.4219 28.4212V42.7204L79.395 42.7379C78.0768 43.5676 76.7271 43.972 75.2687 43.972C73.1955 43.972 71.2077 43.1715 69.1054 42.3242C67.1479 41.5366 65.1262 40.7209 63.108 40.7209C62.81 40.7209 62.5144 40.7396 62.2304 40.7746C61.5246 40.8634 59.6454 41.1357 57.6565 41.4244L57.4274 41.4571C55.4454 41.7457 53.3945 42.0426 52.684 42.1326C52.3112 42.1781 51.9361 42.0753 51.6334 41.8392C51.3226 41.5973 51.1262 41.2514 51.0783 40.8646C51.0479 40.6099 50.9638 39.9356 52.7179 39.121C56.3535 37.4347 60.2286 35.9915 63.3499 35.1606C63.6877 35.0706 63.9705 34.8544 64.1469 34.5518C64.3222 34.2479 64.3702 33.895 64.2802 33.5561C64.1259 32.9835 63.6059 32.5826 63.0122 32.5826C62.8989 32.5826 62.7855 32.5978 62.6745 32.627C59.4164 33.4942 55.3858 34.9935 51.6147 36.7429C50.4309 37.2922 49.5673 37.9676 49.0461 38.7518L49.0333 38.7705L49.0122 38.7763L35.2822 42.5205C34.9795 42.5965 34.6943 42.6351 34.4326 42.6351C33.6251 42.6351 33.0197 42.2518 32.8129 41.6102C32.5955 40.9359 32.8549 40.0653 33.9231 39.6434C34.9923 39.2367 37.5376 38.116 40.7606 36.6973L40.9207 36.6272C45.1885 34.7493 50.501 32.4109 54.7338 30.6942C59.7237 28.6701 61.3259 28.3394 66.1546 28.3394C66.2902 28.3394 66.4269 28.3394 66.5683 28.3406C67.2929 28.3406 67.8807 27.7539 67.8842 27.0341C67.8865 26.3107 67.2999 25.7205 66.5765 25.7182H66.2084C61.0104 25.7182 59.0296 26.1225 53.7486 28.2658C49.4598 30.0058 44.1052 32.3618 39.8012 34.2549L39.7521 34.2771C36.66 35.6374 33.9908 36.8119 32.9847 37.1952C30.4488 38.1897 29.7266 40.5713 30.3179 42.4119C30.7386 43.7242 32.0696 45.2563 34.4314 45.2563C34.914 45.2563 35.4212 45.1897 35.9378 45.0588C35.9459 45.0576 35.9518 45.0564 35.9576 45.0541L48.5529 41.6195L48.5681 41.6768C48.789 42.5685 49.2915 43.3397 50.0219 43.9089C50.7429 44.4698 51.6019 44.7666 52.5029 44.7666C52.6723 44.7666 52.8429 44.7561 53.0124 44.7351C53.6855 44.6509 55.4513 44.395 57.3211 44.1239L57.8049 44.0538C60.0007 43.7347 61.8728 43.4624 62.5588 43.3771C62.7353 43.3549 62.9234 43.3432 63.1139 43.3432C64.6202 43.3432 66.3229 44.0292 68.1261 44.7561C70.2635 45.6174 72.6837 46.592 75.306 46.592C76.7212 46.592 78.0418 46.3115 79.3424 45.7342L79.4242 45.698V46.2215C79.4242 46.9449 80.0132 47.5327 80.7354 47.5327H91.6912C92.4134 47.5327 93.0024 46.9449 93.0024 46.2215V24.3112C93 23.5878 92.4111 23 91.6889 23ZM90.3777 44.9115H82.0443V25.6224H90.3777V44.9115Z" fill="#2A3589"/>
<path d="M86.2115 31.1008C86.9357 31.1008 87.5227 30.5137 87.5227 29.7896C87.5227 29.0654 86.9357 28.4784 86.2115 28.4784C85.4874 28.4784 84.9003 29.0654 84.9003 29.7896C84.9003 30.5137 85.4874 31.1008 86.2115 31.1008Z" fill="#2A3589"/>
<path d="M48.4138 67.5289C51.5189 67.5289 54.4392 66.0015 56.226 63.4446L56.2436 63.4201H61.3341C61.6835 63.4201 62.013 63.2833 62.2608 63.0356L64.6167 60.6808H66.2691L68.6239 63.0356C68.8681 63.2786 69.2058 63.4201 69.5517 63.4201H71.6962C72.0456 63.4201 72.3751 63.2833 72.6229 63.0356L76.7329 58.9267C76.9795 58.6778 77.1162 58.3483 77.1162 58V53.8912C77.1162 53.1678 76.5272 52.58 75.805 52.58H56.2436L56.226 52.5554C54.4392 49.9985 51.5177 48.4711 48.4127 48.4711C43.1586 48.4711 38.885 52.7459 38.885 57.9988C38.885 63.2518 43.1598 67.5289 48.4138 67.5289ZM57.5442 55.2783L57.5209 55.2035H74.4915V57.4578L71.1516 60.7977H70.094L67.7381 58.4429C67.4903 58.1952 67.1608 58.0584 66.8113 58.0584H64.0721C63.7262 58.0584 63.3885 58.1987 63.1442 58.4429L60.7895 60.7977H57.5209L57.5442 60.7229C57.8083 59.8371 57.9427 58.9209 57.9427 58C57.9427 57.0791 57.8072 56.163 57.5442 55.2783ZM48.4138 51.0947C52.2224 51.0947 55.3192 54.1927 55.3192 58C55.3192 61.8074 52.2224 64.9054 48.4138 64.9054C44.6053 64.9054 41.5085 61.8074 41.5085 58C41.5085 54.1927 44.6053 51.0947 48.4138 51.0947Z" fill="#2A3589"/>
<path d="M45.6746 59.3112C46.3988 59.3112 46.9858 58.7242 46.9858 58C46.9858 57.2759 46.3988 56.6888 45.6746 56.6888C44.9505 56.6888 44.3634 57.2759 44.3634 58C44.3634 58.7242 44.9505 59.3112 45.6746 59.3112Z" fill="#2A3589"/>
<path d="M72.0503 28.3755C72.7737 28.3755 73.3615 27.7877 73.3615 27.0644C73.3615 26.341 72.7725 25.7532 72.0503 25.7532C71.3281 25.7532 70.7391 26.341 70.7391 27.0644C70.7391 27.7877 71.3269 28.3755 72.0503 28.3755Z" fill="#2A3589"/>
<path d="M85.6833 73.5881C85.2626 72.2758 83.9316 70.7437 81.5686 70.7437C81.0872 70.7437 80.5788 70.8103 80.0635 70.9412C80.0541 70.9424 80.0494 70.9447 80.0413 70.9471L67.4483 74.3805L67.4331 74.3232C67.2122 73.4315 66.7097 72.6603 65.9793 72.0911C65.1239 71.425 64.0675 71.127 62.99 71.2649C62.3145 71.3491 60.5488 71.605 58.6801 71.8761L58.1975 71.9462C56.0017 72.2653 54.1296 72.5375 53.4436 72.6229C53.2671 72.6451 53.0801 72.6556 52.8897 72.6556C51.3821 72.6556 49.6795 71.9696 47.8763 71.2439C45.7401 70.3838 43.3187 69.408 40.6963 69.408C39.2776 69.408 37.9571 69.6885 36.6599 70.2634L36.5781 70.2996V69.7773C36.5781 69.0539 35.9892 68.4661 35.2669 68.4661H24.3112C23.589 68.4673 23 69.0551 23 69.7785V91.69C23 92.4122 23.589 93 24.3112 93H35.2669C35.9892 93 36.5781 92.4122 36.5781 91.6888V90.2012L38.4631 90.2129C39.1912 90.2129 39.779 89.6285 39.7836 88.9098C39.786 88.5604 39.6516 88.2297 39.405 87.9808C39.1584 87.7319 38.8312 87.5928 38.4806 87.5905L36.5781 87.5788V73.2796L36.605 73.2621C37.9232 72.4324 39.273 72.028 40.7314 72.028C42.8045 72.028 44.7935 72.8285 46.8958 73.6746C48.8509 74.4623 50.8715 75.278 52.8908 75.278C53.1888 75.278 53.4845 75.2593 53.7696 75.2242C54.4872 75.1342 56.4084 74.8561 58.4429 74.5616L58.5738 74.5429C60.4927 74.2636 62.5985 73.9586 63.316 73.8674C63.6842 73.823 64.0639 73.9235 64.3666 74.1608C64.6775 74.4027 64.8738 74.7486 64.9217 75.1354C64.9521 75.3901 65.0362 76.0644 63.2822 76.879C59.6466 78.5653 55.7715 80.0085 52.6501 80.8394C51.9513 81.0252 51.5352 81.7451 51.7199 82.4439C51.8741 83.0165 52.3942 83.4174 52.9878 83.4174C53.1012 83.4174 53.2134 83.4022 53.3244 83.3729C56.5813 82.507 60.613 81.0065 64.3853 79.2571C65.568 78.7078 66.4316 78.0324 66.9528 77.2482L66.9656 77.2295L66.9878 77.2237L80.7179 73.4795C81.0206 73.4035 81.3057 73.3649 81.5675 73.3649C82.3738 73.3649 82.9803 73.7482 83.1872 74.3898C83.4045 75.0641 83.1451 75.9347 82.077 76.3566C80.9925 76.7703 78.3047 77.9529 75.1927 79.3237L75.1261 79.3529C70.8443 81.2367 65.5142 83.5821 61.2663 85.3047C56.2763 87.3287 54.6765 87.6594 49.8548 87.6594C49.7169 87.6594 49.5755 87.6594 49.4317 87.6583C48.7072 87.6583 48.1194 88.2449 48.117 88.9648C48.1147 89.6881 48.7013 90.2783 49.4235 90.2806H49.7543C54.9862 90.2806 56.9716 89.8763 62.2514 87.7342C66.5589 85.9871 71.9299 83.623 76.2468 81.7229L76.2994 81.6995C79.367 80.3497 82.0162 79.1846 83.0142 78.8037C85.5513 77.8103 86.2746 75.4287 85.6833 73.5881ZM33.9558 90.3776H25.6224V71.0885H33.9558V90.3776Z" fill="#2A3589"/>
<path d="M43.9509 90.2468C44.6751 90.2468 45.2621 89.6597 45.2621 88.9356C45.2621 88.2114 44.6751 87.6244 43.9509 87.6244C43.2268 87.6244 42.6397 88.2114 42.6397 88.9356C42.6397 89.6597 43.2268 90.2468 43.9509 90.2468Z" fill="#2A3589"/>
<circle cx="20" cy="20" r="20" fill="#338ABE"/>
<path d="M19.0854 29.312C17.1014 29.312 15.4294 28.888 14.0694 28.04V25.472C15.4454 26.464 17.0694 26.96 18.9414 26.96C20.0454 26.96 20.9974 26.656 21.7974 26.048C22.5974 25.424 22.9974 24.592 22.9974 23.552C22.9974 22.576 22.6454 21.792 21.9414 21.2C21.2374 20.592 20.2934 20.288 19.1094 20.288C18.3414 20.288 17.6294 20.416 16.9734 20.672V18.872L21.4854 14.504H14.6934V12.2H24.9894V14.192L20.6934 18.32C22.0374 18.464 23.2054 19.008 24.1974 19.952C25.1734 20.88 25.6614 22.08 25.6614 23.552C25.6614 25.28 25.0294 26.672 23.7654 27.728C22.5174 28.784 20.9574 29.312 19.0854 29.312Z" fill="white"/>
</svg>
