<svg width="116" height="116" viewBox="0 0 116 116" fill="none" xmlns="http://www.w3.org/2000/svg">
<circle cx="58" cy="58" r="57" fill="white" stroke="#2A3589" stroke-width="2"/>
<path d="M43.8499 37.0292C43.2157 37.0292 42.7014 37.5199 42.7014 38.1253C42.7014 39.4549 41.5678 40.5366 40.1745 40.5366C38.7812 40.5366 37.6477 39.4549 37.6477 38.1253C37.6477 36.7957 38.7812 35.714 40.1745 35.714C40.8088 35.714 41.3231 35.2233 41.3231 34.6179C41.3231 34.0125 40.8089 33.5218 40.1745 33.5218C37.5146 33.5218 35.3507 35.587 35.3507 38.1251C35.3507 40.6633 37.5147 42.7284 40.1745 42.7284C42.8343 42.7284 44.9984 40.6633 44.9984 38.1251C44.9985 37.5199 44.4842 37.0292 43.8499 37.0292Z" fill="#2A3589"/>
<path d="M43.8499 49.8893C43.2157 49.8893 42.7014 50.3799 42.7014 50.9853C42.7014 52.3149 41.5678 53.3966 40.1745 53.3966C38.7812 53.3966 37.6477 52.3149 37.6477 50.9853C37.6477 49.6557 38.7812 48.574 40.1745 48.574C40.8088 48.574 41.3231 48.0834 41.3231 47.478C41.3231 46.8726 40.8089 46.3819 40.1745 46.3819C37.5146 46.3819 35.3507 48.447 35.3507 50.9852C35.3507 53.5234 37.5147 55.5885 40.1745 55.5885C42.8343 55.5885 44.9984 53.5234 44.9984 50.9852C44.9985 50.3801 44.4842 49.8893 43.8499 49.8893Z" fill="#2A3589"/>
<path d="M57.326 52.2275H48.7503C48.116 52.2275 47.6017 52.7182 47.6017 53.3236C47.6017 53.929 48.1159 54.4196 48.7503 54.4196H57.326C57.9603 54.4196 58.4746 53.929 58.4746 53.3236C58.4746 52.7182 57.9604 52.2275 57.326 52.2275Z" fill="#2A3589"/>
<path d="M57.326 47.5511H48.7503C48.116 47.5511 47.6017 48.0418 47.6017 48.6472C47.6017 49.2526 48.1159 49.7432 48.7503 49.7432H57.326C57.9603 49.7432 58.4746 49.2526 58.4746 48.6472C58.4746 48.0418 57.9604 47.5511 57.326 47.5511Z" fill="#2A3589"/>
<path d="M54.8759 65.0875H48.7503C48.116 65.0875 47.6017 65.5782 47.6017 66.1835C47.6017 66.7889 48.1159 67.2796 48.7503 67.2796H54.8759C55.5101 67.2796 56.0245 66.7889 56.0245 66.1835C56.0245 65.5782 55.5101 65.0875 54.8759 65.0875Z" fill="#2A3589"/>
<path d="M57.326 60.4112H48.7503C48.116 60.4112 47.6017 60.9019 47.6017 61.5072C47.6017 62.1126 48.1159 62.6033 48.7503 62.6033H57.326C57.9603 62.6033 58.4746 62.1126 58.4746 61.5072C58.4746 60.9019 57.9604 60.4112 57.326 60.4112Z" fill="#2A3589"/>
<path d="M68.3521 39.3673H48.7503C48.116 39.3673 47.6017 39.858 47.6017 40.4634C47.6017 41.0688 48.1159 41.5595 48.7503 41.5595H68.352C68.9862 41.5595 69.5006 41.0688 69.5006 40.4634C69.5006 39.858 68.9864 39.3673 68.3521 39.3673Z" fill="#2A3589"/>
<path d="M63.4516 34.6909H48.7503C48.116 34.6909 47.6017 35.1816 47.6017 35.787C47.6017 36.3924 48.1159 36.8831 48.7503 36.8831H63.4516C64.0859 36.8831 64.6002 36.3924 64.6002 35.787C64.6002 35.1816 64.086 34.6909 63.4516 34.6909Z" fill="#2A3589"/>
<path d="M43.8499 62.7493C43.2157 62.7493 42.7014 63.24 42.7014 63.8454C42.7014 65.175 41.5678 66.2567 40.1745 66.2567C38.7812 66.2567 37.6477 65.175 37.6477 63.8454C37.6477 62.5158 38.7812 61.4341 40.1745 61.4341C40.8088 61.4341 41.3231 60.9434 41.3231 60.338C41.3231 59.7326 40.8089 59.242 40.1745 59.242C37.5146 59.242 35.3507 61.3071 35.3507 63.8453C35.3507 66.3834 37.5147 68.4486 40.1745 68.4486C42.8343 68.4486 44.9984 66.3834 44.9984 63.8453C44.9985 63.24 44.4842 62.7493 43.8499 62.7493Z" fill="#2A3589"/>
<path d="M73.2525 23H31.5988C29.6145 23 28 24.5405 28 26.4342V75.5363C28 77.43 29.6143 78.9706 31.5988 78.9706H52.4257C53.0599 78.9706 53.5743 78.4799 53.5743 77.8745C53.5743 77.2692 53.0601 76.7784 52.4257 76.7784H31.5988C30.881 76.7784 30.297 76.2212 30.297 75.5362V26.4342C30.297 25.7493 30.881 25.192 31.5988 25.192H73.2525C73.9702 25.192 74.5542 25.7493 74.5542 26.4342V62.6765C74.5542 63.2817 75.0684 63.7725 75.7028 63.7725C76.337 63.7725 76.8514 63.2819 76.8514 62.6765V26.4342C76.8512 24.5405 75.2369 23 73.2525 23Z" fill="#2A3589"/>
<path d="M84.0963 67.4462C83.0288 67.3447 81.9619 67.6334 81.1175 68.2452C80.4448 67.1682 79.2978 66.404 77.9707 66.2772C76.9029 66.1757 75.8362 66.4645 74.9919 67.0761C74.3192 65.9991 73.1722 65.235 71.8451 65.1081C71.0299 65.0304 70.2159 65.1803 69.5006 65.5277V51.5698C69.5006 50.4366 68.9954 49.3502 68.1141 48.5894C67.2338 47.8292 66.0474 47.4582 64.8589 47.5716C62.7387 47.7743 61.0779 49.6037 61.0779 51.7366V65.7297L57.7017 68.9517C55.9075 70.6638 55.1833 73.093 55.7646 75.45L58.3278 85.8457C59.3663 90.0581 63.2588 93 67.7935 93H78.1528C83.5148 93 87.8772 88.8372 87.8772 83.7202V71.6115C87.8773 69.4783 86.2165 67.6489 84.0963 67.4462ZM85.5801 83.72C85.5801 87.6281 82.2483 90.8076 78.153 90.8076H67.7937C64.3301 90.8076 61.357 88.5606 60.5638 85.3432L58.0005 74.9476C57.6028 73.335 58.0984 71.6728 59.3259 70.5014L61.0779 68.8294V72.6135C61.0779 73.2188 61.5921 73.7096 62.2265 73.7096C62.8609 73.7096 63.3751 73.2189 63.3751 72.6135V51.7365C63.3751 50.7159 64.1274 49.8444 65.088 49.7528C65.6398 49.6999 66.1674 49.8643 66.5732 50.2148C66.9739 50.5608 67.2037 51.0548 67.2037 51.57V70.8601C67.2037 71.4654 67.7179 71.9562 68.3523 71.9562C68.9866 71.9562 69.5008 71.4655 69.5008 70.8601V69.1064C69.5008 68.5913 69.7305 68.0973 70.1314 67.7513C70.5374 67.4007 71.0648 67.2362 71.6165 67.2893C72.577 67.381 73.3294 68.2525 73.3294 69.2731V72.0289C73.3294 72.6342 73.8436 73.125 74.478 73.125C75.1122 73.125 75.6266 72.6343 75.6266 72.0289V70.2752C75.6266 69.7601 75.8562 69.2661 76.2571 68.9201C76.6631 68.5695 77.1906 68.4052 77.7422 68.4581C78.7027 68.5498 79.4551 69.4213 79.4551 70.4419V73.1978C79.4551 73.8031 79.9693 74.2939 80.6037 74.2939C81.238 74.2939 81.7523 73.8032 81.7523 73.1978V71.4442C81.7523 70.929 81.9819 70.435 82.3828 70.089C82.7888 69.7386 83.3159 69.574 83.8679 69.6272C84.8284 69.7188 85.5809 70.5902 85.5809 71.6108L85.5801 83.72Z" fill="#2A3589"/>
<circle cx="19.3333" cy="21.2667" r="19.3333" fill="#338ABE"/>
<path d="M21.6393 29.8667H19.0473V15.8987L15.3753 17.8667V15.2987L19.3353 13.0667H21.6393V29.8667Z" fill="white"/>
</svg>
