<svg width="48" height="48" viewBox="0 0 48 48" fill="none" xmlns="http://www.w3.org/2000/svg">
<rect x="1" y="1" width="46" height="46" rx="2" fill="white" stroke="#2A3589" stroke-width="2"/>
<path fill-rule="evenodd" clip-rule="evenodd" d="M36.8499 24.1694C36.5407 23.0213 35.6355 22.1161 34.4874 21.807C32.3899 21.2329 24 21.2329 24 21.2329C24 21.2329 15.61 21.2329 13.5125 21.7849C12.3865 22.094 11.4592 23.0213 11.1501 24.1694C10.5981 26.2669 10.5981 30.6164 10.5981 30.6164C10.5981 30.6164 10.5981 34.988 11.1501 37.0634C11.4592 38.2115 12.3644 39.1168 13.5125 39.4259C15.6321 39.9999 24 39.9999 24 39.9999C24 39.9999 32.3899 39.9999 34.4874 39.4479C35.6355 39.1388 36.5407 38.2336 36.8499 37.0855C37.4018 34.988 37.4018 30.6385 37.4018 30.6385C37.4018 30.6385 37.4239 26.2669 36.8499 24.1694ZM31.3767 32.7405V33.1307C31.3767 33.622 31.3912 33.9977 31.4201 34.2433C31.449 34.489 31.5068 34.6768 31.6079 34.778C31.6946 34.8936 31.8391 34.9514 32.0414 34.9514C32.3015 34.9514 32.4749 34.8502 32.5761 34.6479C32.6772 34.4456 32.7206 34.1133 32.735 33.6364L34.2233 33.7231C34.2378 33.7954 34.2378 33.8821 34.2378 33.9977C34.2378 34.7057 34.0499 35.2404 33.6598 35.5872C33.2697 35.9339 32.7206 36.1073 32.0125 36.1073C31.16 36.1073 30.5675 35.8328 30.2207 35.2982C29.8739 34.7635 29.7006 33.9399 29.7006 32.8128V31.469C29.7006 30.313 29.874 29.4749 30.2352 28.9402C30.5964 28.4056 31.2033 28.1455 32.0559 28.1455C32.6483 28.1455 33.1107 28.2611 33.4286 28.4778C33.7465 28.6946 33.9633 29.0414 34.0933 29.4893C34.2233 29.9517 34.2811 30.5875 34.2811 31.3967V32.7116H31.3767V32.7405ZM31.5935 29.5038C31.5068 29.6194 31.449 29.7928 31.4201 30.0384C31.3912 30.2841 31.3767 30.6598 31.3767 31.1655V31.7146H32.6483V31.1655C32.6483 30.6742 32.6339 30.2985 32.605 30.0384C32.5761 29.7783 32.5038 29.6049 32.4171 29.5038C32.3304 29.4026 32.1859 29.3448 32.0125 29.3448C31.8102 29.3304 31.6802 29.3882 31.5935 29.5038ZM23.0247 36.0206V28.3189H21.2907V34.4312C21.2329 34.5757 21.1318 34.6913 20.9873 34.778C20.8428 34.8791 20.6983 34.9225 20.5538 34.9225C20.3804 34.9225 20.2503 34.8502 20.1781 34.7057C20.1058 34.5612 20.0625 34.3156 20.0625 33.9688V28.3189H18.3285V34.0699C18.3285 34.7924 18.4441 35.3126 18.6897 35.6449C18.9354 35.9773 19.3111 36.1507 19.8168 36.1507C20.5538 36.1507 21.1173 35.7894 21.4786 35.0814H21.5219L21.6664 36.0206H23.0247ZM18.8487 26.8739H17.1291V36.0062H15.4385V26.8739H13.719V25.4723H18.8487V26.8739ZM28.2555 28.4923C28.4867 28.709 28.6601 29.0558 28.7613 29.5471C28.8624 30.024 28.9058 30.7031 28.9202 31.5845V32.7983C28.9202 33.9399 28.7757 34.7924 28.5012 35.3271C28.2267 35.8617 27.8076 36.1362 27.2152 36.1362C26.8828 36.1362 26.5938 36.0495 26.3193 35.905C26.0447 35.7461 25.8424 35.5438 25.7124 35.2837H25.669L25.4956 36.0062H24.0651V25.0821H25.7413V29.1425H25.7557C25.9002 28.8535 26.117 28.6079 26.3915 28.4345C26.6661 28.2466 26.9695 28.1599 27.2874 28.1599C27.692 28.1599 28.0244 28.2755 28.2555 28.4923ZM27.0996 33.9977C27.1429 33.6798 27.1718 33.2463 27.1718 32.6827H27.1863V31.6712C27.1863 31.0788 27.1718 30.6164 27.1285 30.2841C27.0851 29.9662 27.0273 29.735 26.9262 29.5905C26.8395 29.4604 26.695 29.3882 26.5216 29.3882C26.3626 29.3882 26.2037 29.4604 26.0592 29.5905C25.9147 29.735 25.8135 29.9084 25.7557 30.1107V34.4745C25.828 34.6046 25.9291 34.7057 26.0447 34.778C26.1603 34.8502 26.2904 34.8791 26.4349 34.8791C26.6083 34.8791 26.7528 34.8069 26.8684 34.6768C26.9695 34.5468 27.0562 34.3156 27.0996 33.9977Z" fill="#2A3589"/>
<path d="M22.3746 18.3172C22.0278 18.086 21.7821 17.7248 21.6376 17.219C21.4931 16.7277 21.4209 16.063 21.4209 15.2538V14.1412C21.4209 13.3176 21.5076 12.6529 21.6665 12.1471C21.8399 11.6414 22.1 11.2801 22.4468 11.0489C22.8081 10.8177 23.2705 10.7021 23.8485 10.7021C24.412 10.7021 24.8744 10.8177 25.2212 11.0489C25.568 11.2801 25.8136 11.6558 25.9726 12.1471C26.1315 12.6384 26.2182 13.3031 26.2182 14.1412V15.2538C26.2182 16.0775 26.146 16.7277 25.987 17.2335C25.8281 17.7248 25.5824 18.1005 25.2357 18.3317C24.8889 18.5628 24.412 18.6784 23.8196 18.6784C23.2127 18.664 22.7214 18.5484 22.3746 18.3172ZM24.3253 17.1034C24.4265 16.8578 24.4698 16.4387 24.4698 15.8752V13.4765C24.4698 12.9274 24.4265 12.5228 24.3253 12.2627C24.2242 12.0026 24.0652 11.887 23.8196 11.887C23.5884 11.887 23.415 12.0171 23.3283 12.2627C23.2271 12.5228 23.1838 12.9274 23.1838 13.4765V15.8752C23.1838 16.4387 23.2271 16.8578 23.3283 17.1034C23.415 17.3491 23.5884 17.4791 23.834 17.4791C24.0652 17.4791 24.2242 17.3635 24.3253 17.1034Z" fill="#2A3589"/>
<path d="M18.1551 15.1238L16.1899 8H17.9095L18.6031 11.2223C18.7765 12.017 18.9065 12.6962 18.9932 13.2597H19.0366C19.0944 12.8551 19.2244 12.1904 19.4267 11.2368L20.1492 8H21.8687L19.8746 15.1238V18.5339H18.1696V15.1238H18.1551Z" fill="#2A3589"/>
<path d="M31.8102 10.8467V18.5484H30.4519L30.3074 17.6092H30.2641C29.9028 18.3172 29.3393 18.6785 28.6023 18.6785C28.0966 18.6785 27.7209 18.5051 27.4753 18.1727C27.2296 17.8404 27.114 17.3202 27.114 16.5977V10.8467H28.848V16.4966C28.848 16.8434 28.8913 17.089 28.9636 17.2335C29.0358 17.378 29.1659 17.4502 29.3393 17.4502C29.4838 17.4502 29.6283 17.4069 29.7728 17.3057C29.9173 17.219 30.0184 17.1035 30.0762 16.959V10.8467H31.8102Z" fill="#2A3589"/>
</svg>
